<svg width="132" height="132" viewBox="0 0 132 132" fill="none" xmlns="http://www.w3.org/2000/svg">
<rect width="132" height="132" rx="24" fill="black"/>
<path d="M57.7861 17C57.9485 17.0634 58.1717 17.2472 58.3203 17.3555C62.7327 20.5699 67.7995 18.1599 72.6777 18.5244C82.2461 19.2394 92.1741 27.4001 91.6143 37.6797C93.5056 36.8429 94.7134 35.5073 95.126 33.4551C95.5249 31.4687 94.6352 29.779 94.0928 27.9629C96.0693 28.808 97.6905 29.5948 98.7549 31.5771C99.708 33.3524 99.5013 35.1851 98.7812 36.9775C98.9992 36.9737 99.2172 36.9759 99.4346 36.9824C101.898 37.0738 105.018 39.3191 106.114 41.4893C106.344 41.9448 106.576 42.6232 106.731 43.1172C107.841 46.6485 107.436 50.4444 112.179 50.5371C110.897 52.2373 109 53.2035 106.863 52.1377C105.521 51.4679 104.81 49.8601 104.401 48.4609C102.807 50.9994 98.748 51.4165 97.0244 48.7783C96.932 48.6361 96.94 48.5689 96.9854 48.4238C97.3782 48.2924 98.1679 48.4597 98.5381 48.2676C101.899 46.5234 99.5665 42.2981 96.1201 43.8662C94.0199 44.8217 93.7232 47.3096 94.6143 49.1582C96.0746 52.1608 99.8245 54.7388 102.904 55.8887C107.542 57.6201 112.015 59.668 114.091 64.5713C115.272 67.3619 115.318 71.5552 114.138 74.4033C112.994 77.1634 110.958 79.6495 108.238 80.9688C107.416 81.3765 106.743 81.6157 105.912 81.9629C107.097 83.6182 106.896 85.221 106.433 87.0479C107.376 87.3078 108.077 87.9313 108.317 88.8994C109.069 91.9234 106.611 94.3475 104.309 95.8477C103.281 96.5172 102.161 97.1011 101.29 97.9795C98.5592 100.803 99.4442 103.438 95.1406 104.583C95.3904 104.197 95.7718 103.826 95.9893 103.426C97.4628 100.717 96.2036 97.2099 98.958 95.1025C99.3252 94.822 99.7247 94.5844 100.101 94.3438C99.8845 94.3357 99.6658 94.3306 99.4521 94.3213C97.6795 94.2446 95.9983 92.9189 95.7217 91.1221C95.6564 90.6994 95.6809 90.3009 95.707 89.877C95.845 90.0347 96.0159 90.2333 96.1787 90.3643C97.0747 91.0842 98.8437 91.0963 99.6963 90.2773C102.259 87.8164 100.058 84.0801 96.6602 84.8184C95.7645 85.0136 95.0432 85.6069 94.5127 86.3398C91.9987 90.2379 96.3474 94.9653 93.5557 98.8447C92.4516 100.381 90.877 100.848 89.1094 101.163C89.7115 102.022 90.1283 102.747 90.2998 103.809C90.5215 105.266 90.1492 106.753 89.2676 107.932C87.8571 109.856 85.3628 110.808 83.0508 110.368C82.0802 110.183 81.3383 109.987 80.543 109.396C80.4516 109.693 80.3566 109.989 80.2578 110.284C79.6656 112.018 78.4697 113.476 76.8164 114.259C73.8798 115.649 69.551 115.199 68.084 111.921C67.8703 111.444 67.7058 110.929 67.4922 110.469C67.2822 110.463 66.7486 110.685 66.5117 110.76C64.2644 111.469 61.8124 110.829 60.3887 108.877C60.2623 109.003 60.1495 109.092 60.0117 109.204C57.0639 111.62 53.273 112.749 49.4893 112.338C47.4052 112.113 45.5986 111.313 44.2305 109.657C43.2626 108.486 43.1251 107.412 43.2842 105.937C41.7966 105.87 40.0553 105.279 38.7891 104.529C37.2004 103.6 35.8465 102.316 34.834 100.776C33.0249 97.9769 32.7235 95.4214 29.5039 93.415C27.7966 92.3502 26.1725 92.1074 24.1768 92.1572C23.7451 92.1678 22.1879 92.4609 21.9932 92.3643C21.9793 92.231 21.9708 92.1213 22.0752 92.0117C24.333 89.6374 29.0264 88.7728 31.748 90.6221C31.3863 89.8933 31.0156 89.1855 30.708 88.4424C28.2038 82.3922 30.7885 76.3315 37.4727 75.1836C39.0253 74.9167 39.7471 74.8832 41.2881 75.127C42.4088 75.2934 43.4891 75.667 44.4746 76.2275C48.7626 78.6361 48.356 84.06 52.6475 86.2666C53.9156 86.9186 56.2285 86.7523 57.5723 86.208C55.7128 89.5661 50.8984 90.8257 47.8799 88.1992C47.2324 87.6356 46.8691 86.9401 46.4639 86.1963C46.3627 86.3426 46.2888 86.4399 46.166 86.5713C45.3081 87.4803 44.126 88.011 42.8789 88.0479C41.6571 88.074 40.5317 87.7237 39.6328 86.8701C38.4788 85.7741 38.4043 84.0219 39.5146 82.874C39.9777 84.508 40.6015 84.9124 42.2236 84.7422C42.8826 84.1406 43.3385 83.5829 43.126 82.6172C42.571 80.0973 38.8056 79.7556 36.8799 80.6777C33.4451 82.3233 33.4495 86.5496 34.9258 89.5791C36.0337 91.853 37.8921 93.3338 39.0947 95.4961C40.4125 97.8572 39.3447 100.376 41.9795 101.92C41.9867 101.721 41.9986 101.521 42.0146 101.323C42.2124 98.9823 44.0802 98.1083 46.1953 98.334C46.2944 96.8382 46.7389 95.4296 48.1777 94.6465C50.2961 93.4943 53.1369 94.2582 54.3789 96.3301C54.7469 96.9444 55.1569 98.5705 54.9326 99.2725C54.6519 99.452 53.8922 99.0736 53.5088 99.0293C49.5574 98.5775 48.0797 103.34 50.4727 106.007C52.5906 108.366 56.2171 107.864 58.6748 106.387C58.8798 106.206 58.8008 105.872 58.7637 105.642C58.4046 103.407 59.0997 101.674 60.5801 100.069C59.245 98.5898 58.7226 96.8503 58.8232 94.8408C58.9922 90.9984 61.4085 87.9363 64.5469 85.9287C66.9906 84.3656 70.0817 83.2044 72.3789 81.3994C73.6608 80.3925 74.6699 78.8119 74.7314 77.1328C74.8078 75.0538 73.9212 74.2439 72.5967 72.8164C72.5644 73.2396 72.5398 73.6431 72.4609 74.0801C71.6648 78.4806 65.6955 79.9679 62.5244 77.2002C62.0793 76.8118 61.6302 76.2094 61.1855 75.7637C59.3084 76.6345 57.5034 76.7128 55.9424 75.1729C55.4502 74.6872 55.1677 74.11 54.7969 73.5371C53.0725 73.4417 51.9916 73.2174 50.9072 71.749C49.6663 70.0696 47.6058 70.3222 45.8232 70.9102C46.9706 69.4886 47.6273 68.7586 49.5732 68.3857C51.2939 68.0564 53.5585 68.9963 54.9502 70.0088L54.8721 69.8096C54.1647 68.0165 54.6666 66.4487 56.2607 65.3691C57.3918 68.381 59.2866 70.6267 62.5469 71.3799C64.3688 71.8007 65.7199 70.9095 64.7568 68.9648C63.6888 66.8085 60.8086 66.8087 59.0615 65.542C57.8709 64.6936 57.1828 63.6251 56.2881 62.4727C55.5563 63.4836 55.1036 64.1936 53.9473 64.7646C52.2372 65.6092 50.518 65.0406 48.6816 65.625C47.5862 65.9395 46.6103 66.6327 45.6943 67.3105C42.113 69.9612 35.8407 70.9336 33.1523 66.5439C32.7257 65.8471 32.5773 65.135 32.4092 64.3408C33.1849 65.4354 33.9458 66.6104 35.1172 67.3223C37.0302 68.4697 39.176 68.3601 41.2598 67.8652C43.6958 67.2863 45.2674 65.3247 47.5068 64.3389C48.4922 63.9052 49.7607 63.7206 50.8281 63.6553C52.5739 63.5483 53.4171 63.3677 54.3545 61.7715C53.2169 61.8172 51.6783 61.7278 51.3018 60.3691C51.172 59.8893 51.2462 59.3766 51.5059 58.9531C51.8678 58.3546 52.384 58.0916 53.0293 57.9268C52.3055 57.1499 51.3428 56.6326 51.3447 55.4434C51.3473 53.9675 52.6403 52.8737 54.0684 52.8779C55.3849 52.882 55.9678 53.7963 56.8076 54.6445C57.1796 54.0663 57.5513 53.5876 58.2461 53.3789C59.3915 53.0351 59.5488 53.6401 60.3428 54.0791C60.7517 54.0929 60.8095 53.2263 60.7783 52.9238C60.5978 50.5115 57.3558 48.9476 55.2246 48.8467C52.2107 48.704 49.0841 48.6907 46.5186 46.7598C44.245 45.0486 42.6276 44.748 39.8252 44.833C40.611 44.3531 41.4298 44.2447 42.3027 44.1777C45.3498 43.9439 46.7568 45.8508 49.4385 46.6123C50.1872 46.8249 51.5729 47.1 52.3379 47.1357C54.2802 47.2265 55.6727 47.0697 57.6025 47.7168C59.2293 48.2623 59.6474 48.4344 60.9482 49.6084C62.2956 50.7781 63.0216 52.8566 62.2354 54.541C61.6184 55.8621 59.1238 57.3383 60.957 58.8184L61.0205 58.8682C61.542 59.1939 62.0477 59.5015 62.582 59.875C63.6252 60.6041 65.1219 61.9367 66.5137 61.4102C67.8262 60.9135 66.4262 59.5791 66.9463 58.6104C67.0625 58.3135 67.2886 58.0547 67.6104 57.9414C69.6114 57.2374 70.8023 57.9844 71.5205 59.8535C71.8467 59.091 72.3409 58.3719 73.0596 57.9385C78.5468 54.629 82.5924 60.6085 87.5527 61.7188C90.0531 62.2783 92.8629 61.8153 94.9668 60.4482C94.3877 61.3985 93.7596 62.4417 92.8096 63.0898C89.7438 65.1821 85.0918 64.6204 81.8291 63.2412C80.5958 62.7199 79.3359 61.7634 77.9814 61.5244C77.275 61.3999 76.2454 61.4738 75.6738 61.9131C75.1475 62.3177 75.1255 62.6308 75.0273 63.2256C77.5824 63.0507 79.362 64.9814 81.4746 66.0703C85.0872 67.9325 89.0861 67.8598 92.6738 66.0078C93.4262 65.6196 94.099 65.1055 94.7998 64.624L94.8584 64.6855C94.8559 64.717 94.854 64.7488 94.8516 64.7803C93.2199 69.6402 86.9646 70.9503 82.5498 69.959C80.7624 69.5575 79.9181 69.0866 78.4619 68.9463C79.0048 69.3333 79.5578 69.6087 80.0498 70.0947C80.3989 70.4394 80.6151 70.9139 80.9883 71.1914C81.1772 71.3311 81.6601 71.4368 81.918 71.5391C83.13 72.0198 83.9684 72.7819 84.5723 73.9414C84.6928 74.1727 84.851 74.3833 84.7803 74.6221C84.5225 74.7084 84.2016 74.4898 83.8936 74.4717C83.4091 74.4431 83.0848 74.5021 82.6338 74.6523L82.541 74.6836C82.8631 75.0816 83.7873 76.1167 83.9482 76.5225C84.4981 77.9096 84.6267 78.4709 85.5195 79.6836L85.4424 79.8154C84.8446 80.0797 83.3114 79.4832 82.7783 79.1035C83.2878 80.555 83.2686 81.575 83.46 83.0508C83.5215 83.529 83.7832 84.2746 83.9473 84.7266C82.6051 84.5545 82.2298 84.3571 81.3984 83.2959C81.327 83.7935 81.2641 84.5669 81.1777 85.0039C80.8795 86.5212 80.6876 87.2434 80.8125 88.8232C79.6085 88.3382 79.1041 87.6748 78.8232 86.4355C78.6387 86.8403 78.2429 87.857 78.0479 88.1826C77.2283 89.5517 76.9609 89.9684 76.5254 91.459C75.6282 90.7345 75.3598 90.0712 75.4854 88.9434C74.139 90.1747 73.4073 91.7619 73.8174 93.6143C72.5456 93.1099 72.1683 92.5324 71.8818 91.2451C71.3271 92.5799 71.0508 93.7711 72.1934 95.043C72.4481 95.3259 72.7118 95.293 72.8467 95.7285C72.5734 96.4485 70.5035 96.0117 69.9219 95.8027C70.7366 97.3868 72.4877 98.4151 74.251 97.541C74.392 97.4712 74.4681 97.4382 74.6104 97.4912C74.8614 98.4526 73.7653 99.424 73.0508 99.8848C74.237 99.9066 75.5451 99.654 76.5156 98.917C77.0039 98.546 77.4546 97.8331 77.8516 97.3418C78.4568 98.5969 78.3612 98.5949 78.2227 99.8887L78.2949 99.9189C78.3713 99.8871 78.4827 99.8435 78.5498 99.793C80.3704 98.4281 80.5633 97.2843 81.0293 95.2461C81.8868 96.1707 82.0954 96.4594 82.334 97.6914C83.2374 95.2836 83.1421 94.4982 82.9414 91.9297C83.9597 92.2956 84.3749 92.7099 85.0732 93.5146C84.8775 90.999 83.6934 89.5337 85.1182 87.0566C85.4021 88.2313 85.5334 88.3178 86.3555 89.1758C88.0512 81.1316 92.8017 77.725 100.889 78.1621C101.176 78.1776 101.647 78.107 101.949 78.082C106.007 77.7546 109.595 74.1019 109.629 69.9639C109.652 67.1861 107.964 63.0294 104.662 62.9395C99.9346 62.8111 100.77 69.1457 104.933 68.9688C106.249 68.9139 106.623 68.1507 107.403 67.2754C107.431 67.9843 107.47 68.5428 107.287 69.2324C106.968 70.3913 106.205 71.3764 105.164 71.9736C103.643 72.8408 102.062 72.7838 100.405 72.3506C95.3226 71.0194 94.4052 65.3214 97.4111 61.4814C98.1636 60.5201 99.084 60.015 100.128 59.4404C96.89 58.261 92.9675 56.4224 90.6094 53.8799C88.0891 51.1621 87.4503 47.7203 87.7119 44.1221C87.794 43.0031 88.0463 41.3751 88.0557 40.332C88.0929 36.255 86.5724 32.5001 83.7832 29.5527C81.8627 27.5234 79.5149 26.4072 76.7451 26.3438C74.0932 26.2831 70.9776 26.9486 69.0439 28.874C67.7037 30.2089 66.8212 32.1513 66.7783 34.0635C66.7554 35.0817 67.1827 35.8452 67.8506 36.5371C70.3497 39.1253 74.428 36.5303 71.7139 33.4814C71.1596 32.8591 69.9652 32.8271 69.1631 32.9092C70.65 30.4813 74.7125 30.8788 75.8291 33.417C76.0714 32.809 76.2126 32.1436 76.5332 31.5479C77.1067 30.4831 78.4205 29.5003 79.5693 29.1719C79.954 29.062 80.7661 28.7732 81.0898 28.9502L81.1191 29.0527C80.3977 30.6442 81.2662 33.5512 80.7939 35.334C80.5777 36.149 80.1164 37.0826 79.3789 37.5283C83.2575 38.3456 84.3286 40.4225 84.2148 44.2236C83.7036 43.9532 83.2801 43.504 82.8223 43.1523C80.4275 41.3123 77.2049 40.7277 74.6182 42.5762C77.7275 43.2899 78.5893 48.0968 76.2461 50.1455C75.2072 51.0543 73.9737 50.9223 72.7012 50.7979C70.829 52.7346 67.7146 52.166 66.6191 49.707C66.3545 49.1123 66.3101 47.9868 66.5723 47.374C66.6052 47.3562 66.638 47.3381 66.6709 47.3203C66.8217 47.5014 67.1495 47.845 67.3057 47.9854C67.8076 48.4459 68.4436 48.7338 69.1201 48.8066C70.0379 48.915 70.9588 48.6318 71.6572 48.0254C72.6022 47.2198 72.8994 45.2195 72.0146 44.2646C71.1771 43.3849 69.8639 43.3417 68.7344 43.3438C63.8347 43.3526 59.6205 38.8623 59.8584 33.9346C58.1966 37.1239 54.9699 39.3239 51.6875 40.5225C50.4674 40.9828 48.7907 41.6377 47.4717 41.6484C43.4229 41.6814 40.6032 41.0423 36.6104 42.4248C31.8067 43.9545 27.2123 48.4437 29.0254 53.8848C29.6221 55.6753 30.7299 56.4417 32.3291 57.1738C32.1117 56.2863 32.1653 55.3953 32.3691 54.5176C33.7864 48.4179 41.5312 47.0244 44.8174 52.3789C45.8019 53.9848 46.0963 55.9229 45.6328 57.75C45.1728 59.5776 44.0026 61.1444 42.3838 62.1006C40.3144 63.33 37.5435 63.2395 35.5322 61.9912C34.2958 61.2237 33.6331 60.4105 32.9189 59.1768C32.618 59.4971 32.0772 59.7789 31.6631 59.9287C29.9585 60.5451 28.401 60.0921 26.833 59.3691C27.8102 61.9328 27.0953 64.7124 25.2031 66.6143C24.485 67.336 23.836 67.9751 23.1553 68.7373C20.6259 71.5104 23.1881 74.3023 23.3799 77.3896C23.5169 79.5967 22.9709 81.354 21.583 83.0723C22.7429 76.8139 18.0727 75.9153 18.1523 70.3818C18.2062 66.643 21.1097 65.2253 22.3955 62.1543C22.7864 61.2205 22.8941 59.9315 23.0078 58.9121C22.8522 58.9906 22.6956 59.0671 22.5381 59.1416C20.4289 60.14 18.0901 60.0192 17 57.6445C18.7425 58.1347 19.5743 57.5468 20.1768 55.9297C20.89 54.0152 21.1737 51.9936 21.748 50.0361C22.0998 48.855 22.5864 47.7184 23.1982 46.6494C25.1687 43.2606 28.1105 40.679 31.9326 39.6582C29.983 38.5429 28.7944 37.7436 26.3867 37.6758C25.7871 37.6589 25.3759 37.6263 24.7549 37.7148C26.7495 35.2921 29.8059 34.1626 32.9209 34.2939C33.9716 34.3383 34.7216 34.676 35.6611 35.1172C34.5877 33.612 34.1349 31.9616 34.4502 30.1123C34.8773 27.5588 36.8162 25.5261 39.3398 24.9863C40.6805 24.6909 40.6784 25.1567 41.5303 23.8906C43.2049 21.4018 46.2553 20.1661 49.1924 20.6992C52.5952 21.3169 54.3337 24.8484 53.7822 28.082C53.2081 31.3722 49.6568 34.0281 46.3291 33.1963C46.0021 33.1146 45.6324 33.0744 45.4424 32.7783C45.9156 32.3982 46.7426 32.235 47.1621 31.7227C48.9899 29.49 46.8947 26.9565 44.3145 27.4512C42.03 27.8894 40.4284 30.5947 40.8086 32.7578C41.0395 34.0785 41.7978 35.2472 42.9082 35.9932C45.1773 37.5444 47.462 37.3999 49.8955 36.4141C51.9325 35.5888 53.273 34.7376 54.8564 33.1973C55.904 32.1782 56.9414 30.6493 57.8896 29.5332C60.0065 27.0416 63.2848 24.5088 66.5137 23.876C64.2484 23.3588 62.2137 23.0992 60.3477 21.4863C59.164 20.4632 57.9048 18.5816 57.7861 17ZM71.9678 106.425C72.0504 107.037 71.9176 107.662 71.5869 108.188C71.0979 108.981 70.2116 109.188 69.3711 109.388C70.1652 109.573 70.9435 109.705 71.668 109.202C71.916 109.047 72.442 108.462 72.752 108.72C74.0264 109.777 73.9219 111.068 72.9961 112.303C73.7622 112.006 74.3334 111.716 74.4316 110.784C74.5393 109.766 73.8817 109.156 73.2734 108.459C72.9874 108.538 72.6924 108.582 72.4424 108.572C72.7389 107.132 72.3092 106.706 71.9678 106.425ZM67.3438 96.9395C67.0405 96.9407 66.285 98.3092 65.082 98.2637C63.8025 98.215 63.7762 97.5622 63.1475 96.96L63.04 96.9736C62.9685 97.1487 62.9638 97.2548 63.0068 97.4355C63.3934 99.06 64.712 98.8235 65.3975 99.2471C65.4981 99.8368 64.4847 100.996 63.916 101.191C62.8067 101.572 62.4168 101.115 61.5244 100.742L61.4854 100.818C61.583 101.08 61.843 101.37 62.0498 101.555C62.7372 102.17 63.4088 102.103 64.2539 102.07C65.1804 101.36 65.5765 100.94 65.6934 99.6914C65.7077 99.5386 65.6972 99.3875 65.7773 99.2803C65.9902 99.3378 66.0824 99.5501 66.2588 99.7314C66.7919 100.28 67.653 100.241 68.3613 100.242C68.0853 102.518 66.3705 103.348 64.4795 102.035C64.2605 102.47 64.2059 102.928 64.0869 103.401C63.5812 105.414 62.2201 105.378 60.5332 104.796C60.6965 104.972 60.8771 105.171 61.0645 105.319C61.5811 105.728 62.241 105.908 62.8926 105.819C64.0066 105.656 64.7165 104.525 64.6309 103.406C64.6079 103.103 64.4641 102.821 64.5283 102.505C64.9379 102.47 65.5784 104.284 67.9619 102.955C68.0867 104.694 67.5389 106.129 65.4668 106.054C65.1743 106.043 64.8377 105.771 64.4912 105.804L64.4902 105.9C64.8551 106.331 65.2454 106.532 65.7803 106.68C66.7035 106.936 67.3826 106.409 68.1338 105.948C68.186 106.08 68.2385 106.213 68.29 106.345C68.6168 107.189 68.7326 107.77 68.3555 108.669C68.2617 108.893 68.1251 109.013 68.0195 109.255L68.0918 109.287C69.3803 109.006 69.5136 107.595 68.9277 106.588C68.8234 106.408 68.5339 106.314 68.4766 106.078C68.7723 105.975 69.6426 106.197 70.0391 106.128C70.451 106.059 70.8366 105.841 71.2119 105.655C71.5039 105.511 71.7133 105.693 71.835 105.938C72.208 105.878 72.8344 105.902 73.1465 105.764C73.4221 105.642 73.6149 105.515 73.8633 105.36C74.621 105.362 74.8538 106.256 74.835 106.78C74.8225 107.271 74.5736 107.735 74.1475 108.062C73.9555 108.206 73.6888 108.33 73.4043 108.421C75.7092 108.625 75.3489 106.769 76.2246 106.604C76.6117 106.756 76.8542 107.209 77.0586 107.558C77.8794 108.958 77.1996 110.161 75.8594 110.86C76.7715 110.786 77.6111 110.459 78.0566 109.586C78.2957 109.107 78.3282 108.551 78.1475 108.047C77.8336 107.181 77.1834 106.799 76.415 106.445C77.3623 106.008 77.924 105.71 78.3154 104.689C78.4788 104.305 78.8703 104.213 79.2021 104.445C79.867 104.91 80.2476 105.471 80.416 106.249C80.2588 107.454 80.0258 107.725 79.1182 108.504C79.842 108.271 80.8581 107.957 80.9932 107.069C81.5499 105.207 80.4886 104.511 78.9277 103.994C80.0356 103.517 80.7355 102.392 79.8867 101.216C79.8048 101.102 79.6511 101.131 79.5361 101.152C79.2864 101.482 80.2055 103.042 78.4258 103.937C78.4121 103.896 78.3981 103.856 78.3838 103.814C77.9998 102.737 77.4908 102.532 76.5146 102.07L76.8652 102.499C78.1668 104.098 77.5025 105.236 76.0586 106.312C75.7044 105.145 75.253 104.705 74.2812 104.016C74.3042 103.93 74.3248 103.844 74.3428 103.758C74.4385 103.288 74.34 101.921 73.7578 101.857C73.6076 102.189 74.0125 103.244 73.4121 103.957C73.0617 104.373 72.4911 104.689 71.9512 104.766C71.7467 104.691 71.7633 104.536 71.79 104.288C71.8358 103.859 71.7687 103.511 71.6221 103.194C71.6188 103.538 71.5316 103.888 71.3818 104.18C71.1076 104.746 70.4109 105.14 69.7373 105.22C69.3092 105.27 69.0309 105.204 68.5996 105.36C68.8622 104.151 68.9236 103.787 68.4102 102.629C69.5704 102.883 70.1557 102.942 71.0322 102.353C71 102.316 70.9682 102.278 70.9346 102.241C71.2197 101.544 71.1048 100.9 71.0234 100.182C70.545 101.909 70.0817 102.438 68.3115 102.618C68.5948 101.707 68.7608 101.045 68.4912 100.112C68.6155 100 68.7314 99.8794 68.8389 99.751C69.0918 99.4455 69.263 99.1728 69.2344 98.7812L69.1631 98.7412C68.9606 98.9238 68.6251 99.2015 68.3828 99.3301C67.8441 99.6156 66.5236 99.627 66.2197 98.9805C66.3024 98.5672 67.4626 97.6869 67.3438 96.9395ZM88.3076 94.0547C86.9421 94.0884 86.3928 94.3797 85.6113 95.499C85.9796 95.2865 86.342 95.0396 86.7568 94.9492C88.9007 94.483 89.3713 95.7798 89.5107 97.4678C89.3552 97.4081 89.1903 97.3709 89.0205 97.3604C88.2004 97.3024 87.6196 97.7431 87.0361 98.2275C86.9354 97.5411 86.6824 96.7144 85.9717 96.4414C85.7307 96.3492 85.2846 96.2869 85.0459 96.3906C85.0882 97.074 86.8116 96.8115 86.4922 99.0654L86.4785 99.1533C85.0958 98.7762 84.8918 98.9074 83.5967 99.4521C83.245 99.2483 82.8243 99.2513 82.418 99.2295C83.4922 100.071 83.9028 100.852 83.3145 102.343C83.266 102.466 83.1324 102.494 83.0156 102.505C82.0159 101.654 81.6499 101.56 80.3662 101.536C81.1771 101.946 82.0901 102.341 82.3672 103.292C82.6946 104.415 82.1459 105.079 81.5537 105.871C81.7407 105.939 82.1943 105.846 82.4336 105.842C83.2227 105.829 84.0009 106.194 84.3545 106.929C84.5787 107.395 84.5925 107.854 84.5664 108.357C84.59 108.373 84.6141 108.39 84.6377 108.405C85.2384 107.994 85.2258 106.77 84.7979 106.228C84.2412 105.523 83.3102 105.438 82.4883 105.348C83.3046 104.502 83.3334 103.897 83.1719 102.781C83.9243 102.667 84.6315 102.613 85.292 103.108C85.6896 103.407 85.9515 103.853 86.0186 104.347C86.1104 105.008 85.8492 105.722 85.5684 106.314C86.2083 105.765 86.6472 105.321 86.7373 104.422C86.9069 102.732 85.143 101.726 83.6865 102.426C84.0935 101.446 84.5787 100.617 83.7871 99.6631C85.2516 99.0602 86.5321 99.7416 86.79 101.353C86.8708 101.856 86.777 102.307 86.708 102.81C87.0777 102.177 87.4014 101.457 87.3555 100.708C87.3219 100.127 87.0623 99.583 86.6318 99.1934C88.0591 97.6539 89.5403 97.7568 90.6426 99.5537C90.6351 98.9377 90.6346 98.5185 90.2227 97.9941C90.0421 97.7629 89.8057 97.5873 89.54 97.4795C89.7407 96.6352 89.7955 96.4168 90.4697 95.7939C91.811 95.0397 92.3265 95.5883 93.4844 96.2148C92.5896 94.4228 91.2009 94.3589 89.8135 95.7168C89.4892 94.9912 89.0862 94.4231 88.3643 94.0391L88.3076 94.0547ZM66.5498 86.709C65.8924 88.2023 66.0107 88.5175 66.7109 89.9316C65.5217 90.6524 64.0854 90.8292 63.2686 89.4258C63.0522 89.0536 62.9768 88.6983 62.8662 88.2881C62.6164 89.3879 62.5435 90.3137 63.6631 90.9365C62.3171 92.3555 62.1001 92.2905 60.209 92.0723C60.5555 92.5186 60.7818 92.8345 61.3828 92.9043C62.3018 93.0107 62.8644 92.43 63.3203 91.7549C63.5596 93.2834 63.6397 93.7314 65.0576 94.4795C63.9273 95.7057 62.6606 96.3227 61.2559 94.9033C61.0154 94.6608 60.9003 94.4927 60.7637 94.1729L60.6924 94.1953C60.3537 96.3805 63.928 96.4709 61.5576 97.8594C61.0969 98.0601 60.4386 98.1031 60.2715 98.2627C60.2633 98.6591 60.87 98.751 61.1748 98.7373C62.3102 98.688 62.4596 97.3422 62.9951 96.8203C63.9103 95.9281 64.529 96.4151 64.9512 94.8545C65.6278 96.0521 65.9869 96.559 67.4492 96.6514C67.9649 96.3066 68.0774 96.2293 68.4707 95.7236C67.1242 96.099 66.2144 95.9886 65.3936 94.7129C65.3548 94.6519 65.4334 94.5856 65.4707 94.5352C65.8979 94.3885 66.414 94.3527 66.7646 94.1074C66.2178 94.1317 65.6721 94.087 65.3447 94.0107C64.2607 93.6038 63.4157 92.741 63.6211 91.6396C63.7171 91.1256 65.0862 91.3911 65.5859 91.2812C66.0742 91.1733 66.3034 91.099 66.7803 90.9014C67.0196 91.0539 66.8724 91.9349 67.1406 92.3682C67.2672 92.5722 67.5936 92.8402 67.8877 93.0869C68.0684 92.9989 68.3644 92.9356 69.0059 92.833C67.4248 92.348 66.6905 91.8021 66.9736 89.9795C68.1491 90.53 69.0085 90.3267 70.0703 89.6846C69.0192 89.7426 68.1513 89.8461 67.2393 89.1387C66.4601 88.5333 66.8213 87.0344 66.5498 86.709ZM89.5107 97.4678C89.5206 97.4715 89.5303 97.4755 89.54 97.4795C89.5336 97.5066 89.5263 97.5341 89.5195 97.5625C89.5172 97.5308 89.5133 97.4993 89.5107 97.4678ZM87.1621 90.9004C86.9995 91.005 86.8632 91.0695 86.7539 91.2275L86.791 91.2998C87.3961 91.4724 88.087 91.582 88.4102 92.1914C88.7432 92.8192 88.6867 93.2355 88.4258 93.8701L88.4795 93.9121C88.7323 93.7899 88.9519 93.4901 89.1562 93.2881C90.033 92.4202 91.1144 92.5532 92.0029 93.3008C92.131 93.4799 92.3781 93.9006 92.5439 93.9492C92.6328 93.812 92.6119 93.7682 92.5752 93.6055C92.1699 91.8145 90.4039 91.3605 89.0215 92.5488C88.7723 91.3674 88.4338 90.8275 87.1621 90.9004ZM88.6191 85.3721C89.8301 85.7474 90.7641 86.4893 90.4746 87.9238C90.4405 88.0921 90.3879 88.1111 90.2715 88.2129C88.8163 88.4691 88.5271 88.1663 87.4951 89.6133C88.9335 88.8651 90.1843 88.4956 91.0859 90.2705C91.2295 90.7206 91.2858 91.0002 91.374 91.4678C91.6536 90.2503 91.6954 89.8296 90.9785 88.6963C90.8549 88.5012 90.8369 88.5487 90.8486 88.3633C91.3091 87.8452 92.7128 88.2006 93.0166 88.0186C92.9899 87.0842 91.5295 87.4317 90.9805 87.625C91.0724 86.4031 90.8453 85.1717 89.3604 85.1162L88.6191 85.3721ZM69.2109 87.001C68.939 89.1998 70.1168 90.0992 72.2715 89.5527C71.9399 89.4687 71.6325 89.385 71.3535 89.2861C69.9455 89.3778 69.1582 88.5937 69.2109 87.001ZM104.949 84.8936C104.676 85.5 104.389 85.9751 103.753 86.2656C102.967 86.6239 102.241 85.9978 101.826 86.0449C101.807 86.5655 103.129 86.9466 103.537 87.0645C103.277 87.5973 103.205 87.793 102.741 88.1807C102.234 88.475 101.99 88.5447 101.418 88.6943C103.511 89.2187 103.371 88.5788 104.062 87.0059C104.171 86.7572 104.715 86.3681 104.924 86.0938C105.012 85.6518 105.116 85.3212 104.949 84.8936ZM69.8408 85.9551C69.7935 86.2346 69.7718 86.5432 69.7451 86.8271C69.7482 86.8526 69.7534 86.8775 69.7568 86.9023C69.7734 86.7376 69.7919 86.5721 69.8193 86.416C70.7371 86.7857 71.4521 86.946 72.3711 86.4229C73.1509 87.9666 73.8876 88.0736 75.4707 87.6982C75.0863 87.6164 74.7509 87.527 74.4609 87.4219C73.5321 87.5156 72.9697 87.2117 72.3955 86.0879C72.3905 86.1292 72.3838 86.1716 72.3789 86.2158C72.0981 86.2497 71.8465 86.26 71.6201 86.252C71.0305 86.3835 70.4874 86.2258 69.8408 85.9551ZM66.7695 85.6943C66.5402 86.0616 66.9921 86.6162 67.3301 86.7783C67.9328 87.0682 68.5876 86.9626 69.2178 86.8604C69.2247 86.7482 69.236 86.6323 69.251 86.5127C68.8826 86.569 68.5527 86.59 68.2109 86.5098C67.9388 86.5009 67.6699 86.4517 67.4111 86.3223C67.2161 86.2251 66.9835 85.9882 66.8711 85.7344C66.8377 85.7179 66.8041 85.7039 66.7695 85.6943ZM97.3506 79.459C97.2698 79.8312 97.5945 80.1346 97.7393 80.4619C97.9791 81.0044 97.3858 82.2294 96.8564 82.4346C96.2315 82.2694 95.8491 81.5973 95.1025 81.7217C94.7651 81.7778 94.4848 81.8427 94.1523 81.9287C93.805 81.5826 93.0027 80.6424 92.4404 81.1143C92.5401 81.4459 93.5206 81.7511 93.6182 82.6494C93.6796 83.2143 93.4609 83.9774 93.1416 84.4307C91.9921 83.8241 91.352 84.0555 90.2646 84.5674C92.1685 84.4938 93.0112 84.7367 93.5654 86.7031C93.6506 85.8895 93.7015 85.3438 93.2988 84.5781C94.0699 83.5588 94.2286 83.4317 94.2646 82.165C95.7856 82.2149 96.2341 82.487 96.5068 84.0225C96.6565 83.5172 96.7236 83.292 96.79 82.7705C97.1933 82.5822 97.5451 82.4125 97.9365 82.2012C98.1042 81.8403 98.1462 81.6129 98.5928 81.6826C99.291 82.2013 99.3341 83.2976 99.1465 84.0713C99.465 83.7809 99.5733 83.6376 99.8379 83.2998C100.701 83.3098 100.984 83.3117 101.8 83.0742C101.894 83.7481 101.967 84.3568 101.561 84.9229C101.439 85.0918 101.315 85.284 101.261 85.4834C102.214 85.9821 102.385 84.1018 102.457 83.5566C102.48 83.5393 102.503 83.5222 102.525 83.5049C103.183 83.7636 104.136 84.183 104.718 83.5527C104.862 83.3962 105.01 83.0874 104.985 82.8193C104.952 82.7938 104.918 82.7674 104.885 82.7412C104.403 82.9308 103.719 83.2998 103.184 83.2051C101.836 82.9656 102.559 82.0844 102.346 81.1592C102.246 80.729 102.068 80.445 101.816 80.1064C101.985 82.053 101.893 82.5271 99.9297 83.1768C99.8713 81.8077 99.341 81.8401 98.5234 80.9531C98.2283 80.6326 98.0521 79.3792 97.3506 79.459ZM75.3857 85.0352C75.4209 85.3712 75.5309 85.6833 75.7891 85.9893C76.0556 86.3053 76.51 86.692 76.915 86.4316L76.9492 86.3398C76.8332 86.2269 76.7305 86.1256 76.6367 86.0332C76.2771 86.15 75.8991 85.8075 75.667 85.5215C75.5377 85.3622 75.449 85.2002 75.3857 85.0352ZM69.2412 84.6016C69.1476 85.1106 69.2166 85.4903 69.4971 86.0176C69.5823 86.0019 69.6702 85.9863 69.7607 85.9688C69.4201 85.4046 69.26 85.0179 69.2412 84.6016ZM75.2803 83.8652C75.1604 83.9184 75.0391 83.9664 74.917 84.0078C74.2829 84.3651 73.871 84.3529 73.0098 84.377C72.9793 84.8289 72.9965 85.2033 73.0566 85.5176C73.0467 85.3189 73.0496 85.1007 73.0664 84.8604C74.0533 84.8338 74.4641 84.8524 75.2617 84.3545C75.2581 84.1976 75.2652 84.0351 75.2803 83.8652ZM79.3906 82.9375C79.042 83.1365 78.7188 83.2958 78.4189 83.4082C77.2395 84.4794 76.3179 83.2801 75.8945 83.3545C75.8668 83.4067 75.8509 83.4627 75.8398 83.5205C75.8449 83.5367 75.8492 83.5535 75.8545 83.5703C75.8466 83.5749 75.838 83.5784 75.8301 83.583C75.8179 83.6888 75.8208 83.7996 75.8232 83.9082C75.8339 84.3454 75.8869 84.6391 75.9873 84.8779C75.967 84.7392 75.9539 84.5815 75.9492 84.3984C75.9449 84.2102 75.933 84.0146 76.0225 83.8525C76.5391 83.7663 77.7805 85.4587 79.3271 83.0361L79.3906 82.9375ZM71.9932 82.8525C71.9038 83.3322 72.2576 84.0384 72.5029 84.332C72.5415 84.3772 72.5818 84.4212 72.6211 84.4658C72.6556 84.3727 72.6927 84.2731 72.7373 84.165C72.6428 84.0595 72.5503 83.9508 72.46 83.8408C72.2967 83.6377 72.0846 83.2394 71.9932 82.8525ZM75.668 82.8447C75.6827 82.9223 75.6995 82.9975 75.7178 83.0752C75.7221 83.0726 75.7271 83.071 75.7314 83.0684C75.707 82.9885 75.6872 82.9143 75.668 82.8447ZM74.1504 80.9443C73.8757 81.6079 75.0567 82.0573 75.5352 82.2529C75.5098 82.1049 75.4854 81.9451 75.457 81.748C75.145 81.6136 74.4355 81.3399 74.1504 80.9443ZM77.6855 79.8799C77.5257 80.107 77.4008 80.3042 77.2881 80.4785C77.3185 80.4939 77.3489 80.511 77.3809 80.5264C77.2289 80.7012 77.0817 80.8454 76.9404 80.9648C76.6923 81.26 76.3864 81.4849 75.7754 81.7148C75.8642 81.8882 75.9561 82.0413 76.0469 82.1787C77.1179 81.7588 77.1884 81.3411 77.8564 80.4277C78.6145 82.0794 79.7768 83.0692 81.2158 81.3652C80.8739 81.4457 80.5301 81.5166 80.1914 81.5332C79.1411 82.1519 78.2847 81.2368 77.6855 79.8799ZM81.5176 75.4004C81.4215 75.7019 81.3229 76.0109 81.1943 76.3008C81.1247 76.7157 80.9866 77.0717 80.7139 77.2041C80.4483 77.3331 80.1126 77.6433 79.9434 77.8994C79.8689 78.0125 79.808 78.1402 79.752 78.2734C79.8006 78.2758 79.851 78.2802 79.9033 78.2822C79.7791 78.486 79.6528 78.6654 79.5264 78.8232C79.441 79.0103 79.3407 79.1854 79.1982 79.3232C78.9491 79.5628 78.4526 79.7465 78.2432 80.0068C78.2666 80.1745 78.3755 80.3372 78.5068 80.4736C78.7489 80.2575 79.1782 80.0899 79.4062 79.8789C79.7958 79.5167 79.883 78.8952 80.1699 78.4756C80.3432 78.2232 80.6869 77.9174 80.959 77.79C81.5903 77.4957 81.5225 76.0788 81.5176 75.4004ZM75.7422 78.4004C76.0564 79.3074 76.24 79.8285 76.9424 80.2822C77.0327 80.1926 77.1262 80.0926 77.2207 79.9795C76.4257 79.5818 76.1262 79.1756 75.8711 78.5322C75.8287 78.4888 75.7847 78.4458 75.7422 78.4004ZM77.5947 76.9062C77.0988 77.186 76.7816 77.3247 76.4814 77.3359C76.1559 77.4426 75.7942 77.4704 75.3828 77.4707C76.4273 78.0493 76.6733 78.0887 77.7637 77.4971C78.4028 77.9996 78.7108 78.1696 79.3242 78.2402C79.4445 78.083 79.5644 77.9047 79.6826 77.7031C78.6575 77.662 78.3878 77.5545 77.5947 76.9062ZM81.041 73.6211C80.9005 73.8774 80.7562 74.1034 80.6055 74.2979C80.5919 74.365 80.5789 74.4358 80.5635 74.5098C80.2745 74.7321 80.0329 74.8711 79.8135 74.9512C79.4005 75.1261 78.9023 75.1248 78.251 74.9043C78.2662 74.8589 78.2792 74.8136 78.2939 74.7695C78.2034 74.7366 78.1071 74.7036 78.0059 74.668C77.9264 74.8179 78.1054 75.0602 78.1006 75.2744C78.0902 75.7063 77.8545 76.238 77.9551 76.6484C78.0018 76.7057 78.0594 76.7552 78.125 76.7988C78.1675 76.4942 78.2752 76.1694 78.2822 75.8877C78.2872 75.6763 78.1035 75.4368 78.1855 75.2891C79.2983 75.6656 79.7203 75.9373 80.8057 75.1338C80.9318 74.5515 80.9938 74.2146 81.041 73.6211ZM77.0947 74.8438C76.9636 74.8812 76.7566 74.8951 76.5234 74.8877C76.1132 74.9957 75.6611 74.9986 75.2178 74.8965L75.1621 74.9375C75.2814 75.4587 76.7692 75.5967 77.252 75.4639C77.3544 75.4352 77.4565 75.4031 77.5576 75.3701L77.5645 75.3721C77.579 75.1886 77.5472 75.0003 77.4932 74.7891L77.3936 74.75C77.2948 74.7835 77.1947 74.8147 77.0947 74.8438ZM78.373 72.6689C78.4289 73.1961 78.2638 73.677 78.0703 74.2773C78.1916 74.32 78.308 74.352 78.4189 74.3789C78.5941 73.7994 78.6655 73.3 78.373 72.6689ZM69.6025 62.3711C68.4948 62.4288 68.3433 62.6506 67.5635 63.4521C68.9708 63.1701 70.2479 63.1524 70.2891 64.9785C69.3658 66.8585 67.9389 66.1499 66.6279 65.1963C66.828 65.6648 66.9572 66.051 67.3076 66.4238C68.9369 68.3561 72.3756 67.8873 72.4971 65.0518C72.5648 63.4704 71.0901 62.4278 69.6025 62.3711Z" fill="white"/>
</svg>
