<svg width="130" height="190" viewBox="0 0 130 190" fill="none" xmlns="http://www.w3.org/2000/svg">
<path d="M95.6106 189.226C94.6106 189.226 93.8106 189.101 93.2106 188.851C92.6106 188.601 92.1606 188.266 91.8606 187.846C91.5606 187.426 91.3656 186.956 91.2756 186.436C91.1856 185.906 91.1406 185.366 91.1406 184.816V166.711H94.7106V184.396C94.7106 185.066 94.8456 185.586 95.1156 185.956C95.3956 186.326 95.8456 186.541 96.4656 186.601L97.2456 186.631V188.926C96.9756 189.006 96.7006 189.076 96.4206 189.136C96.1406 189.196 95.8706 189.226 95.6106 189.226Z" fill="white"/>
<path d="M80.3391 189.301C79.3491 189.301 78.4591 189.121 77.6691 188.761C76.8891 188.391 76.2741 187.866 75.8241 187.186C75.3841 186.496 75.1641 185.661 75.1641 184.681C75.1641 182.971 75.7791 181.681 77.0091 180.811C78.2491 179.941 80.2191 179.486 82.9191 179.446L85.2441 179.386V178.336C85.2441 177.516 84.9991 176.876 84.5091 176.416C84.0291 175.946 83.2791 175.716 82.2591 175.726C81.4991 175.736 80.8091 175.916 80.1891 176.266C79.5691 176.606 79.1591 177.181 78.9591 177.991H75.8541C75.9141 176.931 76.2191 176.046 76.7691 175.336C77.3291 174.616 78.0941 174.081 79.0641 173.731C80.0341 173.371 81.1541 173.191 82.4241 173.191C83.9041 173.191 85.1091 173.386 86.0391 173.776C86.9691 174.166 87.6541 174.731 88.0941 175.471C88.5341 176.201 88.7541 177.086 88.7541 178.126V189.001H85.6791L85.3791 186.211C84.8291 187.381 84.1241 188.191 83.2641 188.641C82.4141 189.081 81.4391 189.301 80.3391 189.301ZM81.5241 186.826C81.9741 186.826 82.4191 186.746 82.8591 186.586C83.2991 186.416 83.6941 186.191 84.0441 185.911C84.4041 185.621 84.6891 185.301 84.8991 184.951C85.1191 184.601 85.2341 184.236 85.2441 183.856V181.411L83.3391 181.441C82.3991 181.451 81.5741 181.551 80.8641 181.741C80.1641 181.931 79.6191 182.236 79.2291 182.656C78.8391 183.066 78.6441 183.616 78.6441 184.306C78.6441 185.096 78.9191 185.716 79.4691 186.166C80.0191 186.606 80.7041 186.826 81.5241 186.826Z" fill="white"/>
<path d="M66.6441 188.998L60.9141 173.488H64.2591L67.9791 184.348H68.1741L71.8791 173.488H75.2391L69.5241 188.998H66.6441Z" fill="white"/>
<path d="M56.2709 188.999V173.489H59.7659V188.999H56.2709ZM56.2109 170.774V167.324H59.8259V170.774H56.2109Z" fill="white"/>
<path d="M51.8028 189.122C50.5728 189.122 49.6178 188.962 48.9378 188.642C48.2678 188.312 47.8028 187.847 47.5428 187.247C47.2828 186.647 47.1528 185.932 47.1528 185.102V176.072H44.6328V173.492H47.2578L48.1728 168.887H50.7978V173.477H54.2628V176.072H50.7978L50.8128 184.967C50.8128 185.427 50.8628 185.767 50.9628 185.987C51.0728 186.197 51.2428 186.337 51.4728 186.407C51.7128 186.467 52.0278 186.497 52.4178 186.497H54.3378V188.807C54.1278 188.887 53.8178 188.957 53.4078 189.017C53.0078 189.087 52.4728 189.122 51.8028 189.122Z" fill="white"/>
<path d="M37.6959 189.301C36.6159 189.301 35.5909 189.131 34.6209 188.791C33.6609 188.441 32.8509 187.896 32.1909 187.156C31.5409 186.416 31.1309 185.461 30.9609 184.291H34.1709C34.3109 184.861 34.5559 185.326 34.9059 185.686C35.2659 186.046 35.6859 186.311 36.1659 186.481C36.6559 186.641 37.1609 186.721 37.6809 186.721C38.6109 186.721 39.3609 186.561 39.9309 186.241C40.5009 185.921 40.7859 185.426 40.7859 184.756C40.7859 184.266 40.6259 183.876 40.3059 183.586C39.9959 183.296 39.4859 183.076 38.7759 182.926L35.8359 182.251C34.5159 181.961 33.4609 181.481 32.6709 180.811C31.8809 180.141 31.4809 179.196 31.4709 177.976C31.4609 177.056 31.6909 176.236 32.1609 175.516C32.6309 174.796 33.3309 174.231 34.2609 173.821C35.1909 173.401 36.3359 173.191 37.6959 173.191C39.5059 173.191 40.9559 173.596 42.0459 174.406C43.1459 175.206 43.7109 176.351 43.7409 177.841H40.6359C40.5259 177.171 40.2109 176.651 39.6909 176.281C39.1709 175.901 38.4959 175.711 37.6659 175.711C36.8059 175.711 36.1009 175.876 35.5509 176.206C35.0009 176.536 34.7259 177.041 34.7259 177.721C34.7259 178.191 34.9309 178.561 35.3409 178.831C35.7609 179.101 36.3959 179.331 37.2459 179.521L40.0359 180.196C40.8359 180.396 41.4909 180.666 42.0009 181.006C42.5109 181.346 42.9059 181.721 43.1859 182.131C43.4759 182.531 43.6759 182.946 43.7859 183.376C43.9059 183.796 43.9659 184.186 43.9659 184.546C43.9659 185.546 43.7059 186.401 43.1859 187.111C42.6759 187.811 41.9509 188.351 41.0109 188.731C40.0809 189.111 38.9759 189.301 37.6959 189.301Z" fill="white"/>
<path d="M23.0294 189.301C21.5394 189.301 20.2244 188.986 19.0844 188.356C17.9544 187.716 17.0694 186.806 16.4294 185.626C15.7994 184.446 15.4844 183.041 15.4844 181.411C15.4844 179.821 15.7694 178.411 16.3394 177.181C16.9194 175.941 17.7544 174.966 18.8444 174.256C19.9444 173.546 21.2694 173.191 22.8194 173.191C24.3494 173.191 25.6344 173.516 26.6744 174.166C27.7144 174.816 28.5044 175.726 29.0444 176.896C29.5844 178.056 29.8544 179.416 29.8544 180.976V182.086H19.1294C19.1194 182.966 19.2594 183.746 19.5494 184.426C19.8394 185.106 20.2694 185.641 20.8394 186.031C21.4094 186.411 22.1144 186.601 22.9544 186.601C23.8144 186.601 24.5594 186.411 25.1894 186.031C25.8294 185.641 26.2544 185.051 26.4644 184.261H29.7944C29.6144 185.341 29.1844 186.256 28.5044 187.006C27.8344 187.756 27.0144 188.326 26.0444 188.716C25.0844 189.106 24.0794 189.301 23.0294 189.301ZM19.1144 179.821H26.4044C26.4044 179.071 26.2694 178.396 25.9994 177.796C25.7394 177.186 25.3444 176.706 24.8144 176.356C24.2844 175.996 23.6144 175.816 22.8044 175.816C22.0044 175.816 21.3294 176.011 20.7794 176.401C20.2294 176.791 19.8144 177.296 19.5344 177.916C19.2544 178.526 19.1144 179.161 19.1144 179.821Z" fill="white"/>
<path d="M0.625 188.999V167.309H14.815L14.8 170.399H4.33V176.639H13.57V179.684H4.33V188.999H0.625Z" fill="white"/>
<path d="M115.508 159.999V144.489H119.078V146.709C119.318 146.309 119.643 145.924 120.053 145.554C120.473 145.184 120.988 144.884 121.598 144.654C122.208 144.424 122.923 144.309 123.743 144.309C124.703 144.309 125.593 144.499 126.413 144.879C127.243 145.259 127.908 145.854 128.408 146.664C128.918 147.474 129.173 148.519 129.173 149.799V159.999H125.513V150.234C125.513 149.214 125.233 148.459 124.673 147.969C124.113 147.469 123.408 147.219 122.558 147.219C121.978 147.219 121.428 147.319 120.908 147.519C120.388 147.709 119.963 148.004 119.633 148.404C119.313 148.794 119.153 149.284 119.153 149.874V159.999H115.508Z" fill="white"/>
<path d="M106.374 160.301C104.894 160.301 103.604 159.986 102.504 159.356C101.404 158.716 100.549 157.801 99.9391 156.611C99.3391 155.421 99.0391 153.991 99.0391 152.321C99.0391 150.701 99.3341 149.281 99.9241 148.061C100.514 146.841 101.354 145.891 102.444 145.211C103.544 144.531 104.859 144.191 106.389 144.191C107.869 144.191 109.154 144.516 110.244 145.166C111.334 145.816 112.174 146.746 112.764 147.956C113.364 149.166 113.664 150.621 113.664 152.321C113.664 153.891 113.379 155.276 112.809 156.476C112.249 157.666 111.424 158.601 110.334 159.281C109.254 159.961 107.934 160.301 106.374 160.301ZM106.389 157.526C107.229 157.526 107.919 157.296 108.459 156.836C109.009 156.376 109.419 155.746 109.689 154.946C109.959 154.146 110.094 153.236 110.094 152.216C110.094 151.266 109.974 150.391 109.734 149.591C109.494 148.791 109.099 148.151 108.549 147.671C108.009 147.181 107.289 146.936 106.389 146.936C105.539 146.936 104.834 147.161 104.274 147.611C103.724 148.051 103.314 148.671 103.044 149.471C102.774 150.261 102.639 151.176 102.639 152.216C102.639 153.156 102.759 154.031 102.999 154.841C103.239 155.641 103.634 156.291 104.184 156.791C104.734 157.281 105.469 157.526 106.389 157.526Z" fill="white"/>
<path d="M93.6928 159.999V144.489H97.1878V159.999H93.6928ZM93.6328 141.774V138.324H97.2478V141.774H93.6328Z" fill="white"/>
<path d="M89.2325 160.122C88.0025 160.122 87.0475 159.962 86.3675 159.642C85.6975 159.312 85.2325 158.847 84.9725 158.247C84.7125 157.647 84.5825 156.932 84.5825 156.102V147.072H82.0625V144.492H84.6875L85.6025 139.887H88.2275V144.477H91.6925V147.072H88.2275L88.2425 155.967C88.2425 156.427 88.2925 156.767 88.3925 156.987C88.5025 157.197 88.6725 157.337 88.9025 157.407C89.1425 157.467 89.4575 157.497 89.8475 157.497H91.7675V159.807C91.5575 159.887 91.2475 159.957 90.8375 160.017C90.4375 160.087 89.9025 160.122 89.2325 160.122Z" fill="white"/>
<path d="M72.7844 160.301C71.7944 160.301 70.9044 160.121 70.1144 159.761C69.3344 159.391 68.7194 158.866 68.2694 158.186C67.8294 157.496 67.6094 156.661 67.6094 155.681C67.6094 153.971 68.2244 152.681 69.4544 151.811C70.6944 150.941 72.6644 150.486 75.3644 150.446L77.6894 150.386V149.336C77.6894 148.516 77.4444 147.876 76.9544 147.416C76.4744 146.946 75.7244 146.716 74.7044 146.726C73.9444 146.736 73.2544 146.916 72.6344 147.266C72.0144 147.606 71.6044 148.181 71.4044 148.991H68.2994C68.3594 147.931 68.6644 147.046 69.2144 146.336C69.7744 145.616 70.5394 145.081 71.5094 144.731C72.4794 144.371 73.5994 144.191 74.8694 144.191C76.3494 144.191 77.5544 144.386 78.4844 144.776C79.4144 145.166 80.0994 145.731 80.5394 146.471C80.9794 147.201 81.1994 148.086 81.1994 149.126V160.001H78.1244L77.8244 157.211C77.2744 158.381 76.5694 159.191 75.7094 159.641C74.8594 160.081 73.8844 160.301 72.7844 160.301ZM73.9694 157.826C74.4194 157.826 74.8644 157.746 75.3044 157.586C75.7444 157.416 76.1394 157.191 76.4894 156.911C76.8494 156.621 77.1344 156.301 77.3444 155.951C77.5644 155.601 77.6794 155.236 77.6894 154.856V152.411L75.7844 152.441C74.8444 152.451 74.0194 152.551 73.3094 152.741C72.6094 152.931 72.0644 153.236 71.6744 153.656C71.2844 154.066 71.0894 154.616 71.0894 155.306C71.0894 156.096 71.3644 156.716 71.9144 157.166C72.4644 157.606 73.1494 157.826 73.9694 157.826Z" fill="white"/>
<path d="M59.0894 159.998L53.3594 144.488H56.7044L60.4244 155.348H60.6194L64.3244 144.488H67.6844L61.9694 159.998H59.0894Z" fill="white"/>
<path d="M46.1397 160.301C44.6597 160.301 43.3697 159.986 42.2697 159.356C41.1697 158.716 40.3147 157.801 39.7047 156.611C39.1047 155.421 38.8047 153.991 38.8047 152.321C38.8047 150.701 39.0997 149.281 39.6897 148.061C40.2797 146.841 41.1197 145.891 42.2097 145.211C43.3097 144.531 44.6247 144.191 46.1547 144.191C47.6347 144.191 48.9197 144.516 50.0097 145.166C51.0997 145.816 51.9397 146.746 52.5297 147.956C53.1297 149.166 53.4297 150.621 53.4297 152.321C53.4297 153.891 53.1447 155.276 52.5747 156.476C52.0147 157.666 51.1897 158.601 50.0997 159.281C49.0197 159.961 47.6997 160.301 46.1397 160.301ZM46.1547 157.526C46.9947 157.526 47.6847 157.296 48.2247 156.836C48.7747 156.376 49.1847 155.746 49.4547 154.946C49.7247 154.146 49.8597 153.236 49.8597 152.216C49.8597 151.266 49.7397 150.391 49.4997 149.591C49.2597 148.791 48.8647 148.151 48.3147 147.671C47.7747 147.181 47.0547 146.936 46.1547 146.936C45.3047 146.936 44.5997 147.161 44.0397 147.611C43.4897 148.051 43.0797 148.671 42.8097 149.471C42.5397 150.261 42.4047 151.176 42.4047 152.216C42.4047 153.156 42.5247 154.031 42.7647 154.841C43.0047 155.641 43.3997 156.291 43.9497 156.791C44.4997 157.281 45.2347 157.526 46.1547 157.526Z" fill="white"/>
<path d="M23.5547 159.999V144.489H27.1247V146.709C27.3647 146.309 27.6897 145.924 28.0997 145.554C28.5197 145.184 29.0347 144.884 29.6447 144.654C30.2547 144.424 30.9697 144.309 31.7897 144.309C32.7497 144.309 33.6397 144.499 34.4597 144.879C35.2897 145.259 35.9547 145.854 36.4547 146.664C36.9647 147.474 37.2197 148.519 37.2197 149.799V159.999H33.5597V150.234C33.5597 149.214 33.2797 148.459 32.7197 147.969C32.1597 147.469 31.4547 147.219 30.6047 147.219C30.0247 147.219 29.4747 147.319 28.9547 147.519C28.4347 147.709 28.0097 148.004 27.6797 148.404C27.3597 148.794 27.1997 149.284 27.1997 149.874V159.999H23.5547Z" fill="white"/>
<path d="M7.47656 159.999V144.489H11.0466V146.709C11.2866 146.309 11.6116 145.924 12.0216 145.554C12.4416 145.184 12.9566 144.884 13.5666 144.654C14.1766 144.424 14.8916 144.309 15.7116 144.309C16.6716 144.309 17.5616 144.499 18.3816 144.879C19.2116 145.259 19.8766 145.854 20.3766 146.664C20.8866 147.474 21.1416 148.519 21.1416 149.799V159.999H17.4816V150.234C17.4816 149.214 17.2016 148.459 16.6416 147.969C16.0816 147.469 15.3766 147.219 14.5266 147.219C13.9466 147.219 13.3966 147.319 12.8766 147.519C12.3566 147.709 11.9316 148.004 11.6016 148.404C11.2816 148.794 11.1216 149.284 11.1216 149.874V159.999H7.47656Z" fill="white"/>
<path d="M0.625 159.999V138.309H4.27V159.999H0.625Z" fill="white"/>
<path d="M76.9453 130.999V115.489H80.5153V117.709C80.7553 117.309 81.0803 116.924 81.4903 116.554C81.9103 116.184 82.4253 115.884 83.0353 115.654C83.6453 115.424 84.3603 115.309 85.1803 115.309C86.1403 115.309 87.0303 115.499 87.8503 115.879C88.6803 116.259 89.3453 116.854 89.8453 117.664C90.3553 118.474 90.6103 119.519 90.6103 120.799V130.999H86.9503V121.234C86.9503 120.214 86.6703 119.459 86.1103 118.969C85.5503 118.469 84.8453 118.219 83.9953 118.219C83.4153 118.219 82.8653 118.319 82.3453 118.519C81.8253 118.709 81.4003 119.004 81.0703 119.404C80.7503 119.794 80.5903 120.284 80.5903 120.874V130.999H76.9453Z" fill="white"/>
<path d="M66.1437 131.301C65.1537 131.301 64.2638 131.121 63.4738 130.761C62.6938 130.391 62.0787 129.866 61.6287 129.186C61.1887 128.496 60.9688 127.661 60.9688 126.681C60.9688 124.971 61.5837 123.681 62.8137 122.811C64.0537 121.941 66.0238 121.486 68.7238 121.446L71.0487 121.386V120.336C71.0487 119.516 70.8037 118.876 70.3137 118.416C69.8337 117.946 69.0837 117.716 68.0637 117.726C67.3037 117.736 66.6137 117.916 65.9937 118.266C65.3737 118.606 64.9638 119.181 64.7638 119.991H61.6587C61.7187 118.931 62.0237 118.046 62.5737 117.336C63.1337 116.616 63.8987 116.081 64.8687 115.731C65.8387 115.371 66.9587 115.191 68.2287 115.191C69.7087 115.191 70.9137 115.386 71.8437 115.776C72.7737 116.166 73.4587 116.731 73.8987 117.471C74.3387 118.201 74.5588 119.086 74.5588 120.126V131.001H71.4838L71.1838 128.211C70.6337 129.381 69.9288 130.191 69.0688 130.641C68.2188 131.081 67.2437 131.301 66.1437 131.301ZM67.3287 128.826C67.7787 128.826 68.2237 128.746 68.6637 128.586C69.1037 128.416 69.4988 128.191 69.8488 127.911C70.2088 127.621 70.4937 127.301 70.7037 126.951C70.9237 126.601 71.0387 126.236 71.0487 125.856V123.411L69.1437 123.441C68.2037 123.451 67.3788 123.551 66.6688 123.741C65.9688 123.931 65.4237 124.236 65.0337 124.656C64.6437 125.066 64.4487 125.616 64.4487 126.306C64.4487 127.096 64.7237 127.716 65.2737 128.166C65.8237 128.606 66.5087 128.826 67.3287 128.826Z" fill="white"/>
<path d="M57.3419 131.122C56.1119 131.122 55.1569 130.962 54.4769 130.642C53.8069 130.312 53.3419 129.847 53.0819 129.247C52.8219 128.647 52.6919 127.932 52.6919 127.102V118.072H50.1719V115.492H52.7969L53.7119 110.887H56.3369V115.477H59.8019V118.072H56.3369L56.3519 126.967C56.3519 127.427 56.4019 127.767 56.5019 127.987C56.6119 128.197 56.7819 128.337 57.0119 128.407C57.2519 128.467 57.5669 128.497 57.9569 128.497H59.8769V130.807C59.6669 130.887 59.3569 130.957 58.9469 131.017C58.5469 131.087 58.0119 131.122 57.3419 131.122Z" fill="white"/>
<path d="M40.6516 131.298C39.8916 131.298 39.1566 131.188 38.4466 130.968C37.7466 130.738 37.1166 130.408 36.5566 129.978C35.9966 129.538 35.5516 128.998 35.2216 128.358C34.8916 127.718 34.7266 126.973 34.7266 126.123V115.488H38.3866V125.703C38.3866 126.543 38.6516 127.233 39.1816 127.773C39.7216 128.313 40.5316 128.583 41.6116 128.583C42.5916 128.583 43.3766 128.328 43.9666 127.818C44.5566 127.298 44.8516 126.553 44.8516 125.583V115.488H48.4816V130.998H45.6766L45.2716 127.968C45.0816 128.818 44.7466 129.488 44.2666 129.978C43.7966 130.458 43.2416 130.798 42.6016 130.998C41.9716 131.198 41.3216 131.298 40.6516 131.298Z" fill="white"/>
<path d="M18.8984 131.001V108.711H22.4984V117.741C22.7484 117.351 23.0784 116.976 23.4884 116.616C23.8984 116.246 24.3984 115.946 24.9884 115.716C25.5884 115.476 26.3034 115.356 27.1334 115.356C28.1234 115.356 29.0284 115.546 29.8484 115.926C30.6684 116.306 31.3234 116.856 31.8134 117.576C32.3034 118.286 32.5484 119.136 32.5484 120.126V131.001H28.8884V120.741C28.8884 119.941 28.6034 119.321 28.0334 118.881C27.4734 118.441 26.7634 118.221 25.9034 118.221C25.3334 118.221 24.7884 118.321 24.2684 118.521C23.7484 118.721 23.3284 119.021 23.0084 119.421C22.6984 119.811 22.5434 120.301 22.5434 120.891V131.001H18.8984Z" fill="white"/>
<path d="M0.625 130.999V109.309H8.08C10.83 109.309 12.885 109.799 14.245 110.779C15.615 111.749 16.3 113.149 16.3 114.979C16.3 116.089 16.015 117.049 15.445 117.859C14.875 118.669 13.87 119.354 12.43 119.914C13.31 120.124 14.035 120.414 14.605 120.784C15.185 121.144 15.635 121.559 15.955 122.029C16.275 122.489 16.5 122.984 16.63 123.514C16.76 124.044 16.825 124.589 16.825 125.149C16.825 127.129 16.135 128.599 14.755 129.559C13.385 130.519 11.26 130.999 8.38 130.999H0.625ZM4.27 128.089H8.425C9.965 128.089 11.13 127.814 11.92 127.264C12.72 126.704 13.12 125.899 13.12 124.849C13.12 124.089 12.925 123.464 12.535 122.974C12.145 122.474 11.615 122.104 10.945 121.864C10.275 121.624 9.525 121.504 8.695 121.504H4.27V128.089ZM4.27 118.549H8.695C9.205 118.549 9.7 118.494 10.18 118.384C10.66 118.274 11.095 118.099 11.485 117.859C11.875 117.619 12.185 117.299 12.415 116.899C12.655 116.499 12.775 116.014 12.775 115.444C12.775 114.354 12.36 113.544 11.53 113.014C10.71 112.474 9.655 112.204 8.365 112.204H4.27V118.549Z" fill="white"/>
<path d="M117.098 181.001C117.128 180.667 117.204 180.246 117.326 179.738C117.447 179.226 117.623 178.66 117.855 178.042C118.09 177.42 118.384 176.775 118.737 176.108C119.093 175.44 119.518 174.782 120.011 174.133H115.602V172.773H121.746V174.133C121.485 174.459 121.221 174.844 120.956 175.288C120.694 175.732 120.442 176.206 120.199 176.711C119.96 177.215 119.744 177.725 119.55 178.241C119.357 178.757 119.201 179.252 119.084 179.726C118.966 180.2 118.902 180.625 118.89 181.001H117.098Z" fill="#17FF3E"/>
<path d="M108.646 181.001V180.182V179.761C108.646 179.344 108.724 178.983 108.879 178.68C109.035 178.373 109.239 178.107 109.494 177.883C109.751 177.656 110.032 177.457 110.336 177.286C110.643 177.115 110.95 176.954 111.257 176.802C111.565 176.651 111.845 176.499 112.099 176.347C112.357 176.192 112.564 176.019 112.72 175.829C112.875 175.64 112.953 175.416 112.953 175.158C112.953 174.828 112.837 174.559 112.606 174.35C112.378 174.141 112.065 174.037 111.667 174.037C111.254 174.037 110.903 174.157 110.614 174.396C110.326 174.634 110.148 174.995 110.08 175.477H108.492C108.5 174.953 108.621 174.479 108.856 174.054C109.095 173.626 109.452 173.286 109.926 173.036C110.4 172.785 110.996 172.66 111.713 172.66C112.327 172.66 112.856 172.764 113.3 172.973C113.748 173.182 114.093 173.472 114.335 173.844C114.578 174.215 114.7 174.65 114.7 175.147C114.7 175.56 114.624 175.917 114.472 176.216C114.32 176.516 114.119 176.772 113.869 176.984C113.619 177.197 113.344 177.383 113.044 177.542C112.744 177.701 112.445 177.849 112.145 177.986C111.849 178.122 111.576 178.263 111.326 178.407C111.075 178.547 110.874 178.706 110.723 178.885C110.571 179.063 110.495 179.277 110.495 179.528V179.602H114.688V181.001H108.646Z" fill="#17FF3E"/>
<path d="M40.7861 0C40.9485 0.0633832 41.1717 0.247227 41.3203 0.355469C45.7327 3.56994 50.7995 1.1599 55.6777 1.52441C65.2461 2.23944 75.1741 10.4001 74.6143 20.6797C76.5056 19.8429 77.7134 18.5073 78.126 16.4551C78.5249 14.4687 77.6352 12.779 77.0928 10.9629C79.0693 11.808 80.6905 12.5948 81.7549 14.5771C82.708 16.3524 82.5013 18.1851 81.7812 19.9775C81.9992 19.9737 82.2172 19.9759 82.4346 19.9824C84.8982 20.0738 88.0175 22.3191 89.1143 24.4893C89.3442 24.9448 89.5761 25.6232 89.7314 26.1172C90.8412 29.6485 90.4365 33.4444 95.1787 33.5371C93.8968 35.2373 91.9995 36.2035 89.8633 35.1377C88.5206 34.4679 87.8096 32.8601 87.4014 31.4609C85.8074 33.9994 81.748 34.4165 80.0244 31.7783C79.932 31.6361 79.94 31.5689 79.9854 31.4238C80.3782 31.2924 81.1679 31.4597 81.5381 31.2676C84.8988 29.5234 82.5665 25.2981 79.1201 26.8662C77.0199 27.8217 76.7232 30.3096 77.6143 32.1582C79.0746 35.1608 82.8244 37.7388 85.9043 38.8887C90.5415 40.6201 95.0155 42.668 97.0908 47.5713C98.272 50.3619 98.3177 54.5552 97.1377 57.4033C95.9937 60.1634 93.9585 62.6495 91.2383 63.9688C90.4157 64.3765 89.7427 64.6157 88.9121 64.9629C90.097 66.6182 89.8955 68.221 89.4326 70.0479C90.3764 70.3078 91.0768 70.9313 91.3174 71.8994C92.0686 74.9234 89.6107 77.3475 87.3086 78.8477C86.281 79.5172 85.1611 80.1011 84.29 80.9795C81.5592 83.8027 82.4442 86.4383 78.1406 87.583C78.3904 87.1971 78.7718 86.8261 78.9893 86.4258C80.4628 83.7174 79.2036 80.2099 81.958 78.1025C82.3252 77.822 82.7247 77.5844 83.1006 77.3438C82.8845 77.3356 82.6658 77.3306 82.4521 77.3213C80.6795 77.2446 78.9983 75.9189 78.7217 74.1221C78.6564 73.6994 78.6809 73.3009 78.707 72.877C78.845 73.0347 79.0159 73.2333 79.1787 73.3643C80.0747 74.0842 81.8437 74.0963 82.6963 73.2773C85.2588 70.8164 83.0578 67.0801 79.6602 67.8184C78.7645 68.0136 78.0432 68.6069 77.5127 69.3398C74.9987 73.2379 79.3474 77.9653 76.5557 81.8447C75.4516 83.3815 73.877 83.8476 72.1094 84.1631C72.7115 85.0223 73.1283 85.7474 73.2998 86.8086C73.5215 88.2662 73.1492 89.7527 72.2676 90.9316C70.8571 92.8563 68.3628 93.8083 66.0508 93.3682C65.0802 93.183 64.3383 92.9866 63.543 92.3955C63.4516 92.6929 63.3566 92.9893 63.2578 93.2842C62.6656 95.0179 61.4697 96.4757 59.8164 97.2588C56.8798 98.6486 52.551 98.1992 51.084 94.9209C50.8703 94.4435 50.7058 93.9293 50.4922 93.4688C50.2822 93.4625 49.7486 93.6849 49.5117 93.7598C47.2644 94.4686 44.8124 93.8294 43.3887 91.877C43.2623 92.0034 43.1495 92.0921 43.0117 92.2041C40.0639 94.6195 36.273 95.7488 32.4893 95.3379C30.4052 95.1134 28.5986 94.3131 27.2305 92.6572C26.2626 91.4858 26.1251 90.4116 26.2842 88.9365C24.7966 88.8704 23.0553 88.2793 21.7891 87.5293C20.2004 86.6003 18.8465 85.3163 17.834 83.7764C16.0249 80.9769 15.7235 78.4214 12.5039 76.415C10.7966 75.3502 9.17246 75.1074 7.17676 75.1572C6.7451 75.1678 5.18792 75.4609 4.99316 75.3643C4.97927 75.231 4.97084 75.1213 5.0752 75.0117C7.33304 72.6374 12.0264 71.7728 14.748 73.6221C14.3863 72.8933 14.0156 72.1855 13.708 71.4424C11.2038 65.3922 13.7885 59.3315 20.4727 58.1836C22.0253 57.9167 22.7471 57.8832 24.2881 58.127C25.4088 58.2934 26.4891 58.667 27.4746 59.2275C31.7626 61.6361 31.356 67.0601 35.6475 69.2666C36.9156 69.9186 39.2285 69.7523 40.5723 69.208C38.7128 72.5661 33.8984 73.8257 30.8799 71.1992C30.2324 70.6356 29.8691 69.9401 29.4639 69.1963C29.3627 69.3426 29.2888 69.4399 29.166 69.5713C28.3081 70.4803 27.126 71.011 25.8789 71.0479C24.6571 71.074 23.5317 70.7237 22.6328 69.8701C21.4788 68.7741 21.4043 67.0219 22.5146 65.874C22.9777 67.508 23.6015 67.9124 25.2236 67.7422C25.8826 67.1406 26.3385 66.5829 26.126 65.6172C25.571 63.0973 21.8056 62.7556 19.8799 63.6777C16.4451 65.3233 16.4495 69.5496 17.9258 72.5791C19.0337 74.853 20.8921 76.3338 22.0947 78.4961C23.4125 80.8572 22.3447 83.3762 24.9795 84.9199C24.9867 84.7211 24.9986 84.5214 25.0146 84.3232C25.2124 81.9823 27.0802 81.1083 29.1953 81.334C29.2944 79.8382 29.7389 78.4296 31.1777 77.6465C33.2961 76.4943 36.1369 77.2582 37.3789 79.3301C37.7469 79.9444 38.1569 81.5705 37.9326 82.2725C37.6519 82.452 36.8922 82.0736 36.5088 82.0293C32.5574 81.5775 31.0797 86.3401 33.4727 89.0068C35.5906 91.3661 39.2171 90.8644 41.6748 89.3867C41.8798 89.2059 41.8008 88.8723 41.7637 88.6416C41.4046 86.4065 42.0997 84.6735 43.5801 83.0693C42.245 81.5898 41.7226 79.8503 41.8232 77.8408C41.9922 73.9984 44.4085 70.9363 47.5469 68.9287C49.9906 67.3656 53.0817 66.2044 55.3789 64.3994C56.6608 63.3925 57.6699 61.8119 57.7314 60.1328C57.8078 58.0538 56.9212 57.2439 55.5967 55.8164C55.5644 56.2396 55.5398 56.6431 55.4609 57.0801C54.6648 61.4806 48.6955 62.9679 45.5244 60.2002C45.0793 59.8118 44.6302 59.2094 44.1855 58.7637C42.3084 59.6345 40.5034 59.7128 38.9424 58.1729C38.4502 57.6872 38.1677 57.11 37.7969 56.5371C36.0725 56.4417 34.9916 56.2174 33.9072 54.749C32.6663 53.0696 30.6058 53.3222 28.8232 53.9102C29.9706 52.4886 30.6273 51.7586 32.5732 51.3857C34.2939 51.0564 36.5585 51.9963 37.9502 53.0088L37.8721 52.8096C37.1647 51.0165 37.6666 49.4487 39.2607 48.3691C40.3918 51.381 42.2866 53.6267 45.5469 54.3799C47.3688 54.8007 48.7199 53.9095 47.7568 51.9648C46.6888 49.8085 43.8086 49.8087 42.0615 48.542C40.8709 47.6936 40.1828 46.6251 39.2881 45.4727C38.5563 46.4836 38.1036 47.1936 36.9473 47.7646C35.2372 48.6092 33.518 48.0406 31.6816 48.625C30.5862 48.9395 29.6103 49.6327 28.6943 50.3105C25.113 52.9612 18.8407 53.9336 16.1523 49.5439C15.7257 48.8471 15.5773 48.135 15.4092 47.3408C16.1849 48.4354 16.9458 49.6104 18.1172 50.3223C20.0302 51.4697 22.176 51.3601 24.2598 50.8652C26.6958 50.2863 28.2674 48.3247 30.5068 47.3389C31.4922 46.9052 32.7607 46.7206 33.8281 46.6553C35.5739 46.5483 36.4171 46.3677 37.3545 44.7715C36.2169 44.8172 34.6783 44.7278 34.3018 43.3691C34.172 42.8893 34.2462 42.3766 34.5059 41.9531C34.8678 41.3546 35.384 41.0916 36.0293 40.9268C35.3055 40.1499 34.3428 39.6326 34.3447 38.4434C34.3473 36.9675 35.6403 35.8737 37.0684 35.8779C38.3849 35.882 38.9678 36.7963 39.8076 37.6445C40.1796 37.0663 40.5513 36.5876 41.2461 36.3789C42.3915 36.0351 42.5488 36.6401 43.3428 37.0791C43.7517 37.0929 43.8095 36.2263 43.7783 35.9238C43.5978 33.5115 40.3559 31.9476 38.2246 31.8467C35.2107 31.704 32.0841 31.6907 29.5186 29.7598C27.245 28.0486 25.6276 27.748 22.8252 27.833C23.611 27.3531 24.4298 27.2447 25.3027 27.1777C28.3498 26.9439 29.7568 28.8508 32.4385 29.6123C33.1872 29.8249 34.5729 30.1 35.3379 30.1357C37.2802 30.2265 38.6727 30.0697 40.6025 30.7168C42.2293 31.2623 42.6474 31.4344 43.9482 32.6084C45.2956 33.7781 46.0216 35.8566 45.2354 37.541C44.6184 38.8621 42.1238 40.3383 43.957 41.8184L44.0205 41.8682C44.542 42.1939 45.0477 42.5015 45.582 42.875C46.6252 43.6041 48.1219 44.9367 49.5137 44.4102C50.8262 43.9135 49.4262 42.5791 49.9463 41.6104C50.0625 41.3135 50.2886 41.0547 50.6104 40.9414C52.6114 40.2374 53.8023 40.9844 54.5205 42.8535C54.8467 42.091 55.3409 41.3719 56.0596 40.9385C61.5468 37.629 65.5924 43.6085 70.5527 44.7188C73.0531 45.2783 75.8629 44.8153 77.9668 43.4482C77.3877 44.3985 76.7596 45.4417 75.8096 46.0898C72.7438 48.1821 68.0918 47.6204 64.8291 46.2412C63.5958 45.7199 62.3359 44.7635 60.9814 44.5244C60.275 44.3999 59.2454 44.4738 58.6738 44.9131C58.1475 45.3177 58.1255 45.6308 58.0273 46.2256C60.5824 46.0507 62.362 47.9814 64.4746 49.0703C68.0872 50.9325 72.0861 50.8598 75.6738 49.0078C76.4262 48.6196 77.099 48.1055 77.7998 47.624L77.8584 47.6855C77.8559 47.717 77.854 47.7488 77.8516 47.7803C76.2199 52.6402 69.9646 53.9503 65.5498 52.959C63.7624 52.5575 62.9181 52.0866 61.4619 51.9463C62.0048 52.3333 62.5578 52.6087 63.0498 53.0947C63.3989 53.4394 63.6151 53.9139 63.9883 54.1914C64.1772 54.3311 64.6601 54.4368 64.918 54.5391C66.13 55.0198 66.9684 55.7819 67.5723 56.9414C67.6928 57.1727 67.851 57.3833 67.7803 57.6221C67.5225 57.7084 67.2016 57.4898 66.8936 57.4717C66.4091 57.4431 66.0848 57.5021 65.6338 57.6523L65.541 57.6836C65.8631 58.0816 66.7873 59.1167 66.9482 59.5225C67.4981 60.9096 67.6267 61.4709 68.5195 62.6836L68.4424 62.8154C67.8446 63.0797 66.3114 62.4832 65.7783 62.1035C66.2878 63.555 66.2686 64.575 66.46 66.0508C66.5215 66.529 66.7832 67.2746 66.9473 67.7266C65.6051 67.5545 65.2298 67.3571 64.3984 66.2959C64.327 66.7935 64.2641 67.5669 64.1777 68.0039C63.8795 69.5212 63.6876 70.2434 63.8125 71.8232C62.6085 71.3382 62.1041 70.6748 61.8232 69.4355C61.6387 69.8403 61.2429 70.857 61.0479 71.1826C60.2283 72.5517 59.9609 72.9684 59.5254 74.459C58.6282 73.7345 58.3598 73.0712 58.4854 71.9434C57.139 73.1747 56.4073 74.7619 56.8174 76.6143C55.5456 76.1099 55.1683 75.5324 54.8818 74.2451C54.3271 75.5799 54.0508 76.7711 55.1934 78.043C55.4481 78.3259 55.7118 78.293 55.8467 78.7285C55.5733 79.4485 53.5035 79.0117 52.9219 78.8027C53.7366 80.3868 55.4877 81.4151 57.251 80.541C57.392 80.4712 57.4681 80.4382 57.6104 80.4912C57.8614 81.4526 56.7653 82.424 56.0508 82.8848C57.237 82.9066 58.5451 82.654 59.5156 81.917C60.0039 81.546 60.4546 80.8331 60.8516 80.3418C61.4568 81.5969 61.3612 81.5949 61.2227 82.8887L61.2949 82.9189C61.3713 82.8871 61.4827 82.8435 61.5498 82.793C63.3704 81.4281 63.5633 80.2843 64.0293 78.2461C64.8868 79.1707 65.0954 79.4594 65.334 80.6914C66.2374 78.2836 66.1421 77.4982 65.9414 74.9297C66.9597 75.2956 67.3749 75.7099 68.0732 76.5146C67.8775 73.999 66.6934 72.5337 68.1182 70.0566C68.4021 71.2313 68.5334 71.3178 69.3555 72.1758C71.0512 64.1316 75.8017 60.725 83.8887 61.1621C84.1758 61.1776 84.6474 61.107 84.9492 61.082C89.0066 60.7546 92.5947 57.1019 92.6289 52.9639C92.6518 50.1861 90.9639 46.0294 87.6621 45.9395C82.9346 45.8111 83.7703 52.1457 87.9326 51.9688C89.2487 51.9139 89.6229 51.1507 90.4033 50.2754C90.4313 50.9843 90.4704 51.5428 90.2871 52.2324C89.9677 53.3913 89.2047 54.3764 88.1641 54.9736C86.6431 55.8408 85.0617 55.7838 83.4053 55.3506C78.3226 54.0194 77.4052 48.3214 80.4111 44.4814C81.1636 43.5201 82.084 43.015 83.1279 42.4404C79.89 41.261 75.9675 39.4224 73.6094 36.8799C71.0891 34.1621 70.4503 30.7203 70.7119 27.1221C70.794 26.0031 71.0463 24.3751 71.0557 23.332C71.0929 19.255 69.5724 15.5001 66.7832 12.5527C64.8627 10.5234 62.5149 9.40715 59.7451 9.34375C57.0932 9.28315 53.9776 9.94858 52.0439 11.874C50.7037 13.2089 49.8212 15.1513 49.7783 17.0635C49.7554 18.0817 50.1827 18.8452 50.8506 19.5371C53.3497 22.1253 57.428 19.5303 54.7139 16.4814C54.1596 15.8591 52.9652 15.8271 52.1631 15.9092C53.65 13.4813 57.7125 13.8788 58.8291 16.417C59.0714 15.809 59.2126 15.1436 59.5332 14.5479C60.1067 13.4831 61.4205 12.5003 62.5693 12.1719C62.954 12.062 63.7661 11.7732 64.0898 11.9502L64.1191 12.0527C63.3977 13.6442 64.2662 16.5512 63.7939 18.334C63.5777 19.149 63.1164 20.0826 62.3789 20.5283C66.2575 21.3456 67.3286 23.4225 67.2148 27.2236C66.7036 26.9532 66.2801 26.504 65.8223 26.1523C63.4275 24.3123 60.2049 23.7277 57.6182 25.5762C60.7275 26.2899 61.5893 31.0968 59.2461 33.1455C58.2072 34.0543 56.9737 33.9223 55.7012 33.7979C53.829 35.7346 50.7146 35.166 49.6191 32.707C49.3545 32.1123 49.3101 30.9868 49.5723 30.374C49.6052 30.3562 49.638 30.3381 49.6709 30.3203C49.8217 30.5014 50.1495 30.845 50.3057 30.9854C50.8076 31.4459 51.4436 31.7338 52.1201 31.8066C53.0379 31.915 53.9588 31.6318 54.6572 31.0254C55.6022 30.2198 55.8994 28.2195 55.0146 27.2646C54.1771 26.3849 52.8639 26.3417 51.7344 26.3438C46.8347 26.3526 42.6205 21.8623 42.8584 16.9346C41.1966 20.1239 37.9699 22.3239 34.6875 23.5225C33.4674 23.9828 31.7907 24.6377 30.4717 24.6484C26.4229 24.6814 23.6032 24.0423 19.6104 25.4248C14.8067 26.9545 10.2123 31.4437 12.0254 36.8848C12.6221 38.6753 13.7299 39.4417 15.3291 40.1738C15.1117 39.2863 15.1653 38.3953 15.3691 37.5176C16.7864 31.4179 24.5312 30.0244 27.8174 35.3789C28.8018 36.9848 29.0963 38.9229 28.6328 40.75C28.1728 42.5776 27.0026 44.1444 25.3838 45.1006C23.3144 46.33 20.5435 46.2395 18.5322 44.9912C17.2958 44.2237 16.6331 43.4105 15.9189 42.1768C15.618 42.4971 15.0772 42.7789 14.6631 42.9287C12.9585 43.5451 11.401 43.0921 9.83301 42.3691C10.8102 44.9328 10.0953 47.7124 8.20312 49.6143C7.48495 50.336 6.83604 50.9751 6.15527 51.7373C3.62592 54.5104 6.18807 57.3023 6.37988 60.3896C6.51689 62.5967 5.9709 64.354 4.58301 66.0723C5.7429 59.8139 1.07269 58.9153 1.15234 53.3818C1.20619 49.643 4.10973 48.2253 5.39551 45.1543C5.78641 44.2205 5.89412 42.9315 6.00781 41.9121C5.85221 41.9906 5.69561 42.0671 5.53809 42.1416C3.42893 43.14 1.09006 43.0192 0 40.6445C1.74254 41.1347 2.57435 40.5468 3.17676 38.9297C3.88995 37.0152 4.17373 34.9936 4.74805 33.0361C5.0998 31.855 5.58645 30.7184 6.19824 29.6494C8.16872 26.2606 11.1105 23.679 14.9326 22.6582C12.983 21.5429 11.7944 20.7436 9.38672 20.6758C8.78711 20.6589 8.37589 20.6263 7.75488 20.7148C9.74946 18.2921 12.8059 17.1626 15.9209 17.2939C16.9716 17.3383 17.7216 17.676 18.6611 18.1172C17.5877 16.612 17.1349 14.9616 17.4502 13.1123C17.8773 10.5589 19.8162 8.52614 22.3398 7.98633C23.6805 7.69087 23.6784 8.15669 24.5303 6.89062C26.2049 4.40175 29.2553 3.16607 32.1924 3.69922C35.5952 4.31693 37.3337 7.8484 36.7822 11.082C36.2081 14.3722 32.6568 17.0281 29.3291 16.1963C29.0021 16.1146 28.6324 16.0744 28.4424 15.7783C28.9156 15.3982 29.7426 15.235 30.1621 14.7227C31.9899 12.49 29.8947 9.9565 27.3145 10.4512C25.03 10.8894 23.4284 13.5947 23.8086 15.7578C24.0395 17.0785 24.7978 18.2472 25.9082 18.9932C28.1773 20.5444 30.462 20.3999 32.8955 19.4141C34.9325 18.5888 36.273 17.7376 37.8564 16.1973C38.904 15.1782 39.9414 13.6493 40.8896 12.5332C43.0065 10.0416 46.2848 7.50876 49.5137 6.87598C47.2484 6.35878 45.2137 6.09918 43.3477 4.48633C42.164 3.46323 40.9048 1.58163 40.7861 0ZM54.9678 89.4248C55.0504 90.0372 54.9176 90.662 54.5869 91.1885C54.0979 91.9806 53.2116 92.1876 52.3711 92.3877C53.1652 92.5729 53.9435 92.7047 54.668 92.2021C54.916 92.0472 55.442 91.4625 55.752 91.7197C57.0264 92.7766 56.9219 94.0676 55.9961 95.3027C56.7622 95.006 57.3334 94.7161 57.4316 93.7842C57.5393 92.766 56.8817 92.1563 56.2734 91.459C55.9874 91.5378 55.6924 91.5822 55.4424 91.5723C55.7389 90.1321 55.3092 89.7065 54.9678 89.4248ZM50.3438 79.9395C50.0405 79.9407 49.285 81.3092 48.082 81.2637C46.8025 81.215 46.7762 80.5622 46.1475 79.96L46.04 79.9736C45.9685 80.1487 45.9638 80.2548 46.0068 80.4355C46.3934 82.06 47.712 81.8235 48.3975 82.2471C48.4981 82.8368 47.4847 83.9961 46.916 84.1914C45.8067 84.5723 45.4168 84.115 44.5244 83.7422L44.4854 83.8184C44.583 84.0795 44.843 84.3696 45.0498 84.5547C45.7372 85.1703 46.4088 85.1027 47.2539 85.0703C48.1804 84.3596 48.5765 83.9401 48.6934 82.6914C48.7076 82.5387 48.6972 82.3875 48.7773 82.2803C48.9902 82.3378 49.0824 82.5501 49.2588 82.7314C49.7919 83.2801 50.653 83.2409 51.3613 83.2422C51.0853 85.5182 49.3705 86.3478 47.4795 85.0352C47.2605 85.4703 47.2059 85.9276 47.0869 86.4014C46.5812 88.414 45.2201 88.3782 43.5332 87.7959C43.6965 87.9723 43.8771 88.1709 44.0645 88.3193C44.5811 88.7276 45.241 88.9079 45.8926 88.8193C47.0066 88.6557 47.7165 87.5246 47.6309 86.4062C47.6079 86.1034 47.4641 85.8208 47.5283 85.5049C47.9379 85.47 48.5784 87.2837 50.9619 85.9551C51.0867 87.6944 50.5389 89.1292 48.4668 89.0537C48.1743 89.043 47.8377 88.7709 47.4912 88.8037L47.4902 88.9004C47.8551 89.331 48.2454 89.532 48.7803 89.6797C49.7035 89.9358 50.3826 89.409 51.1338 88.9482C51.186 89.0798 51.2385 89.2125 51.29 89.3447C51.6168 90.1894 51.7326 90.7699 51.3555 91.6689C51.2617 91.8927 51.1251 92.0131 51.0195 92.2549L51.0918 92.2871C52.3803 92.0064 52.5136 90.5948 51.9277 89.5879C51.8234 89.4078 51.5339 89.3142 51.4766 89.0781C51.7723 88.9746 52.6426 89.1971 53.0391 89.1279C53.451 89.0587 53.8366 88.8411 54.2119 88.6553C54.5039 88.5109 54.7133 88.6933 54.835 88.9385C55.208 88.8785 55.8344 88.9017 56.1465 88.7637C56.4221 88.6422 56.6149 88.5145 56.8633 88.3604C57.621 88.3617 57.8538 89.2559 57.835 89.7803C57.8225 90.2705 57.5736 90.7352 57.1475 91.0615C56.9555 91.2062 56.6888 91.3303 56.4043 91.4209C58.7092 91.6255 58.3489 89.7693 59.2246 89.6045C59.6117 89.756 59.8542 90.2091 60.0586 90.5576C60.8794 91.958 60.1996 93.1608 58.8594 93.8604C59.7715 93.7855 60.6111 93.4595 61.0566 92.5859C61.2957 92.1072 61.3282 91.5506 61.1475 91.0469C60.8336 90.1813 60.1834 89.7994 59.415 89.4453C60.3623 89.0078 60.924 88.7098 61.3154 87.6895C61.4788 87.3054 61.8703 87.2134 62.2021 87.4453C62.867 87.9098 63.2476 88.4709 63.416 89.249C63.2588 90.4535 63.0258 90.7247 62.1182 91.5039C62.842 91.2707 63.8581 90.9569 63.9932 90.0693C64.5499 88.2069 63.4886 87.511 61.9277 86.9941C63.0356 86.5172 63.7355 85.3917 62.8867 84.2158C62.8048 84.1018 62.6511 84.1311 62.5361 84.1523C62.2864 84.4822 63.2055 86.0418 61.4258 86.9365C61.4121 86.896 61.3981 86.8556 61.3838 86.8145C60.9998 85.7371 60.4908 85.5317 59.5146 85.0703L59.8652 85.499C61.1668 87.0982 60.5025 88.2364 59.0586 89.3125C58.7044 88.1449 58.253 87.7052 57.2812 87.0156C57.3042 86.9303 57.3248 86.8438 57.3428 86.7578C57.4385 86.2883 57.34 84.9211 56.7578 84.8574C56.6076 85.1886 57.0125 86.2444 56.4121 86.957C56.0617 87.3735 55.4911 87.6889 54.9512 87.7656C54.7467 87.6908 54.7633 87.5356 54.79 87.2881C54.8358 86.8589 54.7687 86.5113 54.6221 86.1943C54.6188 86.5376 54.5316 86.8879 54.3818 87.1797C54.1076 87.746 53.4109 88.1401 52.7373 88.2197C52.3092 88.2699 52.0309 88.2036 51.5996 88.3604C51.8622 87.1512 51.9236 86.7873 51.4102 85.6289C52.5704 85.883 53.1557 85.9418 54.0322 85.3525C54 85.316 53.9682 85.2783 53.9346 85.2412C54.2197 84.5436 54.1048 83.9004 54.0234 83.1816C53.545 84.9085 53.0817 85.438 51.3115 85.6182C51.5948 84.7075 51.7608 84.0448 51.4912 83.1123C51.6155 83.0001 51.7314 82.8794 51.8389 82.751C52.0918 82.4455 52.263 82.1728 52.2344 81.7812L52.1631 81.7412C51.9606 81.9238 51.6251 82.2015 51.3828 82.3301C50.8441 82.6156 49.5236 82.627 49.2197 81.9805C49.3024 81.5672 50.4626 80.6869 50.3438 79.9395ZM71.3076 77.0547C69.9421 77.0883 69.3928 77.3797 68.6113 78.499C68.9796 78.2865 69.342 78.0396 69.7568 77.9492C71.9007 77.483 72.3713 78.7798 72.5107 80.4678C72.3552 80.4081 72.1903 80.3709 72.0205 80.3604C71.2004 80.3024 70.6196 80.7431 70.0361 81.2275C69.9354 80.5411 69.6824 79.7144 68.9717 79.4414C68.7307 79.3493 68.2846 79.2869 68.0459 79.3906C68.0882 80.074 69.8116 79.8115 69.4922 82.0654L69.4785 82.1533C68.0958 81.7762 67.8918 81.9074 66.5967 82.4521C66.245 82.2483 65.8243 82.2513 65.418 82.2295C66.4922 83.0712 66.9027 83.8521 66.3145 85.3428C66.266 85.4656 66.1324 85.4937 66.0156 85.5049C65.0159 84.6538 64.6499 84.5598 63.3662 84.5361C64.1771 84.9464 65.0901 85.3412 65.3672 86.292C65.6946 87.4149 65.1459 88.0786 64.5537 88.8711C64.7407 88.939 65.1943 88.8456 65.4336 88.8418C66.2227 88.8293 67.0009 89.1936 67.3545 89.9287C67.5787 90.395 67.5925 90.8544 67.5664 91.3574C67.59 91.373 67.6141 91.3897 67.6377 91.4053C68.2384 90.9938 68.2258 89.7695 67.7979 89.2275C67.2412 88.5231 66.3102 88.438 65.4883 88.3477C66.3046 87.5017 66.3334 86.8972 66.1719 85.7812C66.9243 85.6672 67.6315 85.6133 68.292 86.1084C68.6896 86.4071 68.9515 86.8529 69.0186 87.3467C69.1104 88.0081 68.8492 88.7223 68.5684 89.3145C69.2083 88.7652 69.6472 88.3215 69.7373 87.4219C69.9069 85.7316 68.143 84.7263 66.6865 85.4258C67.0935 84.4463 67.5787 83.617 66.7871 82.6631C68.2516 82.0602 69.5321 82.7416 69.79 84.3525C69.8708 84.8557 69.777 85.307 69.708 85.8096C70.0777 85.1774 70.4015 84.4568 70.3555 83.708C70.3219 83.1271 70.0623 82.583 69.6318 82.1934C71.0591 80.6539 72.5403 80.7568 73.6426 82.5537C73.6351 81.9377 73.6346 81.5185 73.2227 80.9941C73.0421 80.7629 72.8057 80.5873 72.54 80.4795C72.7407 79.6352 72.7955 79.4168 73.4697 78.7939C74.811 78.0397 75.3265 78.5883 76.4844 79.2148C75.5896 77.4228 74.2009 77.3589 72.8135 78.7168C72.4892 77.9912 72.0862 77.4231 71.3643 77.0391L71.3076 77.0547ZM49.5498 69.709C48.8924 71.2023 49.0107 71.5175 49.7109 72.9316C48.5217 73.6524 47.0854 73.8292 46.2686 72.4258C46.0522 72.0536 45.9768 71.6983 45.8662 71.2881C45.6164 72.3879 45.5435 73.3137 46.6631 73.9365C45.3171 75.3555 45.1001 75.2905 43.209 75.0723C43.5555 75.5186 43.7818 75.8345 44.3828 75.9043C45.3018 76.0107 45.8644 75.43 46.3203 74.7549C46.5596 76.2834 46.6397 76.7314 48.0576 77.4795C46.9273 78.7057 45.6606 79.3227 44.2559 77.9033C44.0154 77.6608 43.9003 77.4927 43.7637 77.1729L43.6924 77.1953C43.3537 79.3805 46.928 79.4709 44.5576 80.8594C44.097 81.0601 43.4386 81.1031 43.2715 81.2627C43.2633 81.6591 43.87 81.751 44.1748 81.7373C45.3102 81.688 45.4596 80.3422 45.9951 79.8203C46.9103 78.9281 47.529 79.4151 47.9512 77.8545C48.6278 79.0521 48.9869 79.559 50.4492 79.6514C50.965 79.3066 51.0774 79.2293 51.4707 78.7236C50.1242 79.099 49.2144 78.9886 48.3936 77.7129C48.3548 77.6519 48.4334 77.5856 48.4707 77.5352C48.8979 77.3885 49.414 77.3527 49.7646 77.1074C49.2178 77.1317 48.6721 77.087 48.3447 77.0107C47.2607 76.6038 46.4157 75.741 46.6211 74.6396C46.7171 74.1256 48.0862 74.3911 48.5859 74.2812C49.0742 74.1733 49.3034 74.099 49.7803 73.9014C50.0196 74.0539 49.8724 74.9349 50.1406 75.3682C50.2672 75.5722 50.5936 75.8402 50.8877 76.0869C51.0684 75.9989 51.3644 75.9356 52.0059 75.833C50.4248 75.348 49.6905 74.8021 49.9736 72.9795C51.1492 73.53 52.0085 73.3267 53.0703 72.6846C52.0192 72.7426 51.1513 72.8461 50.2393 72.1387C49.4601 71.5333 49.8213 70.0344 49.5498 69.709ZM72.5107 80.4678C72.5206 80.4715 72.5303 80.4755 72.54 80.4795C72.5336 80.5066 72.5263 80.5341 72.5195 80.5625C72.5172 80.5308 72.5133 80.4993 72.5107 80.4678ZM70.1621 73.9004C69.9995 74.0051 69.8632 74.0695 69.7539 74.2275L69.791 74.2998C70.3961 74.4725 71.087 74.582 71.4102 75.1914C71.7432 75.8192 71.6867 76.2355 71.4258 76.8701L71.4795 76.9121C71.7323 76.7899 71.9519 76.4901 72.1562 76.2881C73.033 75.4202 74.1144 75.5532 75.0029 76.3008C75.131 76.4799 75.3781 76.9006 75.5439 76.9492C75.6328 76.812 75.6119 76.7682 75.5752 76.6055C75.1699 74.8145 73.4039 74.3605 72.0215 75.5488C71.7723 74.3674 71.4338 73.8275 70.1621 73.9004ZM71.6191 68.3721C72.8301 68.7474 73.7641 69.4893 73.4746 70.9238C73.4405 71.0921 73.3879 71.1111 73.2715 71.2129C71.8163 71.4691 71.5271 71.1663 70.4951 72.6133C71.9335 71.8651 73.1843 71.4956 74.0859 73.2705C74.2295 73.7206 74.2858 74.0002 74.374 74.4678C74.6536 73.2503 74.6954 72.8296 73.9785 71.6963C73.8549 71.5013 73.8369 71.5487 73.8486 71.3633C74.3091 70.8452 75.7128 71.2006 76.0166 71.0186C75.9899 70.0842 74.5295 70.4317 73.9805 70.625C74.0724 69.4031 73.8453 68.1717 72.3604 68.1162L71.6191 68.3721ZM52.2109 70.001C51.939 72.1998 53.1168 73.0992 55.2715 72.5527C54.9399 72.4687 54.6325 72.385 54.3535 72.2861C52.9455 72.3778 52.1581 71.5937 52.2109 70.001ZM87.9492 67.8936C87.6765 68.5 87.3891 68.9751 86.7529 69.2656C85.9671 69.6239 85.2412 68.9978 84.8262 69.0449C84.8072 69.5655 86.1289 69.9466 86.5371 70.0645C86.2769 70.5973 86.2052 70.793 85.7412 71.1807C85.2342 71.475 84.9902 71.5447 84.418 71.6943C86.5107 72.2187 86.371 71.5788 87.0625 70.0059C87.1712 69.7572 87.7149 69.3681 87.9238 69.0938C88.012 68.6518 88.1156 68.3212 87.9492 67.8936ZM52.8408 68.9551C52.7935 69.2346 52.7718 69.5432 52.7451 69.8271C52.7482 69.8526 52.7534 69.8775 52.7568 69.9023C52.7734 69.7376 52.7919 69.5721 52.8193 69.416C53.7371 69.7858 54.4521 69.946 55.3711 69.4229C56.1509 70.9666 56.8876 71.0736 58.4707 70.6982C58.0863 70.6164 57.7509 70.527 57.4609 70.4219C56.5321 70.5156 55.9697 70.2117 55.3955 69.0879C55.3905 69.1292 55.3838 69.1716 55.3789 69.2158C55.0981 69.2497 54.8465 69.26 54.6201 69.252C54.0305 69.3835 53.4874 69.2258 52.8408 68.9551ZM49.7695 68.6943C49.5402 69.0616 49.9921 69.6162 50.3301 69.7783C50.9328 70.0682 51.5876 69.9626 52.2178 69.8604C52.2247 69.7482 52.236 69.6323 52.251 69.5127C51.8826 69.569 51.5527 69.59 51.2109 69.5098C50.9388 69.5009 50.6699 69.4517 50.4111 69.3223C50.2161 69.2251 49.9835 68.9882 49.8711 68.7344C49.8377 68.7179 49.8041 68.7039 49.7695 68.6943ZM80.3506 62.459C80.2698 62.8312 80.5945 63.1346 80.7393 63.4619C80.9791 64.0044 80.3858 65.2294 79.8564 65.4346C79.2315 65.2694 78.8491 64.5973 78.1025 64.7217C77.7651 64.7778 77.4848 64.8427 77.1523 64.9287C76.805 64.5826 76.0027 63.6424 75.4404 64.1143C75.5401 64.4459 76.5206 64.7511 76.6182 65.6494C76.6796 66.2143 76.4609 66.9774 76.1416 67.4307C74.9921 66.8241 74.352 67.0555 73.2646 67.5674C75.1685 67.4938 76.0112 67.7367 76.5654 69.7031C76.6506 68.8895 76.7015 68.3438 76.2988 67.5781C77.0699 66.5588 77.2286 66.4317 77.2646 65.165C78.7856 65.2149 79.2341 65.487 79.5068 67.0225C79.6565 66.5172 79.7236 66.292 79.79 65.7705C80.1933 65.5822 80.5451 65.4125 80.9365 65.2012C81.1042 64.8403 81.1462 64.6129 81.5928 64.6826C82.291 65.2013 82.3341 66.2976 82.1465 67.0713C82.465 66.7809 82.5733 66.6376 82.8379 66.2998C83.7007 66.3098 83.9835 66.3117 84.7998 66.0742C84.8936 66.7481 84.9675 67.3568 84.5605 67.9229C84.4394 68.0918 84.3154 68.284 84.2607 68.4834C85.2138 68.9821 85.3849 67.1018 85.457 66.5566C85.4799 66.5393 85.5025 66.5222 85.5254 66.5049C86.1828 66.7636 87.1362 67.183 87.7178 66.5527C87.8619 66.3962 88.0096 66.0874 87.9854 65.8193C87.9519 65.7938 87.9183 65.7673 87.8848 65.7412C87.4032 65.9308 86.7186 66.2999 86.1836 66.2051C84.836 65.9656 85.5594 65.0844 85.3457 64.1592C85.2463 63.729 85.0681 63.445 84.8164 63.1064C84.9848 65.053 84.8926 65.5271 82.9297 66.1768C82.8713 64.8077 82.341 64.8401 81.5234 63.9531C81.2283 63.6326 81.0521 62.3792 80.3506 62.459ZM58.3857 68.0352C58.4209 68.3712 58.5309 68.6833 58.7891 68.9893C59.0556 69.3053 59.51 69.692 59.915 69.4316L59.9492 69.3398C59.8332 69.2269 59.7305 69.1256 59.6367 69.0332C59.2771 69.15 58.8991 68.8075 58.667 68.5215C58.5377 68.3622 58.449 68.2002 58.3857 68.0352ZM52.2412 67.6016C52.1476 68.1106 52.2166 68.4903 52.4971 69.0176C52.5823 69.0019 52.6702 68.9863 52.7607 68.9688C52.4201 68.4046 52.26 68.0179 52.2412 67.6016ZM58.2803 66.8652C58.1604 66.9184 58.0391 66.9664 57.917 67.0078C57.2829 67.3651 56.871 67.3529 56.0098 67.377C55.9793 67.8289 55.9965 68.2033 56.0566 68.5176C56.0467 68.3189 56.0496 68.1007 56.0664 67.8604C57.0533 67.8338 57.4641 67.8524 58.2617 67.3545C58.2581 67.1975 58.2652 67.0351 58.2803 66.8652ZM62.3906 65.9375C62.042 66.1365 61.7188 66.2958 61.4189 66.4082C60.2395 67.4794 59.3179 66.2801 58.8945 66.3545C58.8668 66.4067 58.8509 66.4627 58.8398 66.5205C58.8449 66.5368 58.8492 66.5535 58.8545 66.5703C58.8466 66.5749 58.838 66.5784 58.8301 66.583C58.8179 66.6888 58.8208 66.7996 58.8232 66.9082C58.8339 67.3454 58.8869 67.6391 58.9873 67.8779C58.967 67.7392 58.9539 67.5815 58.9492 67.3984C58.9449 67.2102 58.933 67.0146 59.0225 66.8525C59.5391 66.7663 60.7805 68.4587 62.3271 66.0361L62.3906 65.9375ZM54.9932 65.8525C54.9038 66.3322 55.2576 67.0384 55.5029 67.332C55.5415 67.3772 55.5818 67.4212 55.6211 67.4658C55.6556 67.3727 55.6927 67.2731 55.7373 67.165C55.6428 67.0595 55.5503 66.9508 55.46 66.8408C55.2967 66.6377 55.0846 66.2394 54.9932 65.8525ZM58.668 65.8447C58.6827 65.9223 58.6995 65.9975 58.7178 66.0752C58.7221 66.0726 58.7271 66.071 58.7314 66.0684C58.707 65.9885 58.6872 65.9143 58.668 65.8447ZM57.1504 63.9443C56.8757 64.6079 58.0567 65.0573 58.5352 65.2529C58.5098 65.1049 58.4854 64.9451 58.457 64.748C58.145 64.6136 57.4355 64.3399 57.1504 63.9443ZM60.6855 62.8799C60.5257 63.107 60.4008 63.3042 60.2881 63.4785C60.3185 63.4939 60.3489 63.511 60.3809 63.5264C60.229 63.7012 60.0817 63.8454 59.9404 63.9648C59.6923 64.26 59.3864 64.4849 58.7754 64.7148C58.8642 64.8882 58.9561 65.0414 59.0469 65.1787C60.1179 64.7588 60.1884 64.3411 60.8564 63.4277C61.6145 65.0794 62.7767 66.0692 64.2158 64.3652C63.8739 64.4457 63.5301 64.5166 63.1914 64.5332C62.1411 65.1519 61.2847 64.2368 60.6855 62.8799ZM64.5176 58.4004C64.4215 58.7019 64.3229 59.0109 64.1943 59.3008C64.1247 59.7157 63.9866 60.0717 63.7139 60.2041C63.4483 60.3331 63.1126 60.6433 62.9434 60.8994C62.8689 61.0125 62.808 61.1402 62.752 61.2734C62.8006 61.2758 62.851 61.2802 62.9033 61.2822C62.7791 61.486 62.6528 61.6654 62.5264 61.8232C62.441 62.0103 62.3407 62.1854 62.1982 62.3232C61.9491 62.5628 61.4526 62.7465 61.2432 63.0068C61.2666 63.1745 61.3755 63.3372 61.5068 63.4736C61.7489 63.2575 62.1782 63.0899 62.4062 62.8789C62.7958 62.5167 62.883 61.8952 63.1699 61.4756C63.3432 61.2232 63.6869 60.9174 63.959 60.79C64.5903 60.4958 64.5226 59.0788 64.5176 58.4004ZM58.7422 61.4004C59.0564 62.3074 59.24 62.8285 59.9424 63.2822C60.0327 63.1926 60.1262 63.0926 60.2207 62.9795C59.4257 62.5818 59.1262 62.1756 58.8711 61.5322C58.8287 61.4888 58.7847 61.4458 58.7422 61.4004ZM60.5947 59.9062C60.0988 60.186 59.7816 60.3247 59.4814 60.3359C59.1559 60.4426 58.7942 60.4704 58.3828 60.4707C59.4273 61.0493 59.6733 61.0887 60.7637 60.4971C61.4028 60.9996 61.7108 61.1696 62.3242 61.2402C62.4445 61.083 62.5644 60.9047 62.6826 60.7031C61.6575 60.662 61.3878 60.5545 60.5947 59.9062ZM64.041 56.6211C63.9005 56.8774 63.7562 57.1034 63.6055 57.2979C63.5919 57.365 63.5789 57.4358 63.5635 57.5098C63.2745 57.7321 63.0329 57.8711 62.8135 57.9512C62.4005 58.1261 61.9023 58.1248 61.251 57.9043C61.2662 57.8589 61.2792 57.8136 61.2939 57.7695C61.2034 57.7366 61.1071 57.7036 61.0059 57.668C60.9264 57.8179 61.1054 58.0602 61.1006 58.2744C61.0902 58.7063 60.8545 59.238 60.9551 59.6484C61.0018 59.7057 61.0594 59.7552 61.125 59.7988C61.1675 59.4942 61.2752 59.1693 61.2822 58.8877C61.2872 58.6763 61.1035 58.4368 61.1855 58.2891C62.2983 58.6656 62.7203 58.9373 63.8057 58.1338C63.9318 57.5515 63.9938 57.2146 64.041 56.6211ZM60.0947 57.8438C59.9636 57.8812 59.7566 57.8951 59.5234 57.8877C59.1132 57.9957 58.6611 57.9986 58.2178 57.8965L58.1621 57.9375C58.2814 58.4587 59.7692 58.5967 60.252 58.4639C60.3544 58.4352 60.4565 58.4031 60.5576 58.3701L60.5645 58.3721C60.579 58.1886 60.5472 58.0003 60.4932 57.7891L60.3936 57.75C60.2948 57.7835 60.1947 57.8147 60.0947 57.8438ZM61.373 55.6689C61.4289 56.1961 61.2638 56.677 61.0703 57.2773C61.1916 57.32 61.308 57.352 61.4189 57.3789C61.5941 56.7994 61.6655 56.3 61.373 55.6689ZM52.6025 45.3711C51.4948 45.4288 51.3433 45.6506 50.5635 46.4521C51.9708 46.1701 53.2479 46.1524 53.2891 47.9785C52.3658 49.8585 50.9389 49.1499 49.6279 48.1963C49.828 48.6648 49.9572 49.051 50.3076 49.4238C51.9369 51.3561 55.3756 50.8873 55.4971 48.0518C55.5648 46.4704 54.0901 45.4278 52.6025 45.3711Z" fill="white"/>
</svg>
